solid OpenSCAD_Model
  facet normal -1 0 0
    outer loop
      vertex 0 0 0
      vertex 0 0 31
      vertex 0 2 0
    endloop
  endfacet
  facet normal -1 0 0
    outer loop
      vertex 0 2 0
      vertex 0 0 31
      vertex 0 2 31
    endloop
  endfacet
  facet normal 0 -1 0
    outer loop
      vertex 5 0 5
      vertex 0 0 0
      vertex 47 0 0
    endloop
  endfacet
  facet normal 0 -1 0
    outer loop
      vertex 47 0 5.016
      vertex 45 0 5.016
      vertex 47 0 0
    endloop
  endfacet
  facet normal 0 -1 0
    outer loop
      vertex 45 0 5.016
      vertex 45 0 5
      vertex 47 0 0
    endloop
  endfacet
  facet normal 0 -1 0
    outer loop
      vertex 0 0 31
      vertex 0 0 0
      vertex 5 0 5
    endloop
  endfacet
  facet normal 0 -1 0
    outer loop
      vertex 45 0 5
      vertex 5 0 5
      vertex 47 0 0
    endloop
  endfacet
  facet normal 0 -1 0
    outer loop
      vertex 5 0 5
      vertex 5 0 31
      vertex 0 0 31
    endloop
  endfacet
  facet normal 0 0 -1
    outer loop
      vertex 0 0 0
      vertex 0 2 0
      vertex 47 0 0
    endloop
  endfacet
  facet normal 0 0 -1
    outer loop
      vertex 47 0 0
      vertex 0 2 0
      vertex 3 2 0
    endloop
  endfacet
  facet normal 0 0 -1
    outer loop
      vertex 5 2 0
      vertex 3 2 0
      vertex 3 20 0
    endloop
  endfacet
  facet normal 0 0 -1
    outer loop
      vertex 47 0 0
      vertex 3 2 0
      vertex 5 2 0
    endloop
  endfacet
  facet normal 0 0 -1
    outer loop
      vertex 45 2 0
      vertex 47 0 0
      vertex 5 2 0
    endloop
  endfacet
  facet normal 0 0 -1
    outer loop
      vertex 47 0 0
      vertex 45 2 0
      vertex 45 20 0
    endloop
  endfacet
  facet normal 0 0 -1
    outer loop
      vertex 47 0 0
      vertex 45 20 0
      vertex 47 20 0
    endloop
  endfacet
  facet normal 0 0 -1
    outer loop
      vertex 5 2 0
      vertex 3 20 0
      vertex 5 20 0
    endloop
  endfacet
  facet normal 0 1 0
    outer loop
      vertex 0 2 0
      vertex 0 2 31
      vertex 3 2 0
    endloop
  endfacet
  facet normal 0 1 0
    outer loop
      vertex 3 2 0
      vertex 0 2 31
      vertex 3 2 31
    endloop
  endfacet
  facet normal 0 0 1
    outer loop
      vertex 0 2 31
      vertex 0 0 31
      vertex 5 0 31
    endloop
  endfacet
  facet normal 0 0 1
    outer loop
      vertex 3 2 31
      vertex 0 2 31
      vertex 5 0 31
    endloop
  endfacet
  facet normal 0 0 1
    outer loop
      vertex 45 15.0019 31
      vertex 5 15 31
      vertex 45 15 31
    endloop
  endfacet
  facet normal 0 0 1
    outer loop
      vertex 47 20 31
      vertex 5 15 31
      vertex 45 15.0019 31
    endloop
  endfacet
  facet normal 0 0 1
    outer loop
      vertex 47 20 31
      vertex 45 15.0019 31
      vertex 47 15.0019 31
    endloop
  endfacet
  facet normal 0 0 1
    outer loop
      vertex 3 20 31
      vertex 5 15 31
      vertex 47 20 31
    endloop
  endfacet
  facet normal 0 0 1
    outer loop
      vertex 5 15 31
      vertex 3 2 31
      vertex 5 0 31
    endloop
  endfacet
  facet normal 0 0 1
    outer loop
      vertex 3 20 31
      vertex 3 2 31
      vertex 5 15 31
    endloop
  endfacet
  facet normal 1 0 0
    outer loop
      vertex 5 0 31
      vertex 5 15 30.9808
      vertex 5 15 31
    endloop
  endfacet
  facet normal 1 0 0
    outer loop
      vertex 5 0 5
      vertex 5 15 30.9808
      vertex 5 0 31
    endloop
  endfacet
  facet normal 0 -0.866025 0.5
    outer loop
      vertex 10 5 13.6603
      vertex 5 0 5
      vertex 45 0 5
    endloop
  endfacet
  facet normal 0 -0.866025 0.5
    outer loop
      vertex 30 10 22.3205
      vertex 30 5 13.6603
      vertex 45 0 5
    endloop
  endfacet
  facet normal 0 -0.866025 0.5
    outer loop
      vertex 5 15 30.9808
      vertex 5 0 5
      vertex 10 5 13.6603
    endloop
  endfacet
  facet normal 0 -0.866025 0.5
    outer loop
      vertex 5 15 30.9808
      vertex 10 5 13.6603
      vertex 10 10 22.3205
    endloop
  endfacet
  facet normal 0 -0.866025 0.5
    outer loop
      vertex 39.2569 4.66543 13.0808
      vertex 30 10 22.3205
      vertex 45 0 5
    endloop
  endfacet
  facet normal 0 -0.866025 0.5
    outer loop
      vertex 45 15 30.9808
      vertex 5 15 30.9808
      vertex 30 10 22.3205
    endloop
  endfacet
  facet normal 0 -0.866025 0.5
    outer loop
      vertex 39.0489 5.15451 13.9279
      vertex 39.0865 5.20337 14.0125
      vertex 45 15 30.9808
    endloop
  endfacet
  facet normal 0 -0.866025 0.5
    outer loop
      vertex 40.866 4.75 13.2272
      vertex 40.809 4.70611 13.1512
      vertex 45 0 5
    endloop
  endfacet
  facet normal 0 -0.866025 0.5
    outer loop
      vertex 39.191 4.70611 13.1512
      vertex 39.134 4.75 13.2272
      vertex 30 10 22.3205
    endloop
  endfacet
  facet normal 0 -0.866025 0.5
    outer loop
      vertex 39 5 13.6603
      vertex 30 10 22.3205
      vertex 39.0055 4.94774 13.5697
    endloop
  endfacet
  facet normal 0 -0.866025 0.5
    outer loop
      vertex 39.0055 5.05226 13.7508
      vertex 30 10 22.3205
      vertex 39 5 13.6603
    endloop
  endfacet
  facet normal 0 -0.866025 0.5
    outer loop
      vertex 39.0219 5.10396 13.8403
      vertex 30 10 22.3205
      vertex 39.0055 5.05226 13.7508
    endloop
  endfacet
  facet normal 0 -0.866025 0.5
    outer loop
      vertex 39.0489 5.15451 13.9279
      vertex 30 10 22.3205
      vertex 39.0219 5.10396 13.8403
    endloop
  endfacet
  facet normal 0 -0.866025 0.5
    outer loop
      vertex 39.0865 5.20337 14.0125
      vertex 39.134 5.25 14.0933
      vertex 45 15 30.9808
    endloop
  endfacet
  facet normal 0 -0.866025 0.5
    outer loop
      vertex 39.0055 9.94774 22.23
      vertex 30 10 22.3205
      vertex 39.0489 5.15451 13.9279
    endloop
  endfacet
  facet normal 0 -0.866025 0.5
    outer loop
      vertex 39.134 5.25 14.0933
      vertex 39.191 5.29389 14.1693
      vertex 45 15 30.9808
    endloop
  endfacet
  facet normal 0 -0.866025 0.5
    outer loop
      vertex 39.191 5.29389 14.1693
      vertex 39.2569 5.33457 14.2397
      vertex 45 15 30.9808
    endloop
  endfacet
  facet normal 0 -0.866025 0.5
    outer loop
      vertex 40.9511 5.15451 13.9279
      vertex 40.9781 5.10396 13.8403
      vertex 45 0 5
    endloop
  endfacet
  facet normal 0 -0.866025 0.5
    outer loop
      vertex 39.5 4.56699 12.9103
      vertex 39.4122 4.59549 12.9596
      vertex 45 0 5
    endloop
  endfacet
  facet normal 0 -0.866025 0.5
    outer loop
      vertex 40.2079 4.51093 12.8132
      vertex 40.1045 4.50274 12.799
      vertex 45 0 5
    endloop
  endfacet
  facet normal 0 -0.866025 0.5
    outer loop
      vertex 45 15 30.9808
      vertex 39.2569 5.33457 14.2397
      vertex 39.3309 5.37157 14.3038
    endloop
  endfacet
  facet normal 0 -0.866025 0.5
    outer loop
      vertex 40.309 4.52447 12.8366
      vertex 40.2079 4.51093 12.8132
      vertex 45 0 5
    endloop
  endfacet
  facet normal 0 -0.866025 0.5
    outer loop
      vertex 45 15 30.9808
      vertex 39.3309 5.37157 14.3038
      vertex 39.4122 5.40451 14.3609
    endloop
  endfacet
  facet normal 0 -0.866025 0.5
    outer loop
      vertex 40.5 9.56699 21.5705
      vertex 40.4067 9.54323 21.5294
      vertex 39.0489 5.15451 13.9279
    endloop
  endfacet
  facet normal 0 -0.866025 0.5
    outer loop
      vertex 45 15 30.9808
      vertex 39.4122 5.40451 14.3609
      vertex 39.5 5.43301 14.4103
    endloop
  endfacet
  facet normal 0 -0.866025 0.5
    outer loop
      vertex 45 15 30.9808
      vertex 39.5 5.43301 14.4103
      vertex 39.5933 5.45677 14.4514
    endloop
  endfacet
  facet normal 0 -0.866025 0.5
    outer loop
      vertex 40.5 4.56699 12.9103
      vertex 40.4067 4.54323 12.8691
      vertex 45 0 5
    endloop
  endfacet
  facet normal 0 -0.866025 0.5
    outer loop
      vertex 45 15 30.9808
      vertex 39.5933 5.45677 14.4514
      vertex 39.691 5.47553 14.4839
    endloop
  endfacet
  facet normal 0 -0.866025 0.5
    outer loop
      vertex 40.5878 4.59549 12.9596
      vertex 40.5 4.56699 12.9103
      vertex 45 0 5
    endloop
  endfacet
  facet normal 0 -0.866025 0.5
    outer loop
      vertex 45 15 30.9808
      vertex 39.691 5.47553 14.4839
      vertex 39.7921 5.48907 14.5074
    endloop
  endfacet
  facet normal 0 -0.866025 0.5
    outer loop
      vertex 40.6691 4.62843 13.0167
      vertex 40.5878 4.59549 12.9596
      vertex 45 0 5
    endloop
  endfacet
  facet normal 0 -0.866025 0.5
    outer loop
      vertex 45 15 30.9808
      vertex 39.7921 5.48907 14.5074
      vertex 39.8955 5.49726 14.5215
    endloop
  endfacet
  facet normal 0 -0.866025 0.5
    outer loop
      vertex 40.7431 4.66543 13.0808
      vertex 40.6691 4.62843 13.0167
      vertex 45 0 5
    endloop
  endfacet
  facet normal 0 -0.866025 0.5
    outer loop
      vertex 45 15 30.9808
      vertex 39.8955 5.49726 14.5215
      vertex 40 5.5 14.5263
    endloop
  endfacet
  facet normal 0 -0.866025 0.5
    outer loop
      vertex 40.809 4.70611 13.1512
      vertex 40.7431 4.66543 13.0808
      vertex 45 0 5
    endloop
  endfacet
  facet normal 0 -0.866025 0.5
    outer loop
      vertex 45 15 30.9808
      vertex 40 5.5 14.5263
      vertex 40.1045 5.49726 14.5215
    endloop
  endfacet
  facet normal 0 -0.866025 0.5
    outer loop
      vertex 40.4067 4.54323 12.8691
      vertex 40.309 4.52447 12.8366
      vertex 45 0 5
    endloop
  endfacet
  facet normal 0 -0.866025 0.5
    outer loop
      vertex 45 15 30.9808
      vertex 40.1045 5.49726 14.5215
      vertex 40.2079 5.48907 14.5074
    endloop
  endfacet
  facet normal 0 -0.866025 0.5
    outer loop
      vertex 45 15 30.9808
      vertex 40.2079 5.48907 14.5074
      vertex 40.309 5.47553 14.4839
    endloop
  endfacet
  facet normal 0 -0.866025 0.5
    outer loop
      vertex 40.9135 4.79663 13.308
      vertex 40.866 4.75 13.2272
      vertex 45 0 5
    endloop
  endfacet
  facet normal 0 -0.866025 0.5
    outer loop
      vertex 45 15 30.9808
      vertex 40.309 5.47553 14.4839
      vertex 40.4067 5.45677 14.4514
    endloop
  endfacet
  facet normal 0 -0.866025 0.5
    outer loop
      vertex 40.9511 4.84549 13.3926
      vertex 40.9135 4.79663 13.308
      vertex 45 0 5
    endloop
  endfacet
  facet normal 0 -0.866025 0.5
    outer loop
      vertex 45 15 30.9808
      vertex 40.4067 5.45677 14.4514
      vertex 40.5 5.43301 14.4103
    endloop
  endfacet
  facet normal 0 -0.866025 0.5
    outer loop
      vertex 40.9781 4.89604 13.4802
      vertex 40.9511 4.84549 13.3926
      vertex 45 0 5
    endloop
  endfacet
  facet normal 0 -0.866025 0.5
    outer loop
      vertex 45 15 30.9808
      vertex 40.5 5.43301 14.4103
      vertex 40.5878 5.40451 14.3609
    endloop
  endfacet
  facet normal 0 -0.866025 0.5
    outer loop
      vertex 40.9945 4.94774 13.5697
      vertex 40.9781 4.89604 13.4802
      vertex 45 0 5
    endloop
  endfacet
  facet normal 0 -0.866025 0.5
    outer loop
      vertex 45 15 30.9808
      vertex 40.5878 5.40451 14.3609
      vertex 40.6691 5.37157 14.3038
    endloop
  endfacet
  facet normal 0 -0.866025 0.5
    outer loop
      vertex 41 5 13.6603
      vertex 40.9945 4.94774 13.5697
      vertex 45 0 5
    endloop
  endfacet
  facet normal 0 -0.866025 0.5
    outer loop
      vertex 45 15 30.9808
      vertex 40.6691 5.37157 14.3038
      vertex 40.7431 5.33457 14.2397
    endloop
  endfacet
  facet normal 0 -0.866025 0.5
    outer loop
      vertex 40.9945 5.05226 13.7508
      vertex 41 5 13.6603
      vertex 45 0 5
    endloop
  endfacet
  facet normal 0 -0.866025 0.5
    outer loop
      vertex 45 15 30.9808
      vertex 40.7431 5.33457 14.2397
      vertex 40.809 5.29389 14.1693
    endloop
  endfacet
  facet normal 0 -0.866025 0.5
    outer loop
      vertex 40.9781 5.10396 13.8403
      vertex 40.9945 5.05226 13.7508
      vertex 45 0 5
    endloop
  endfacet
  facet normal 0 -0.866025 0.5
    outer loop
      vertex 45 15 30.9808
      vertex 40.809 5.29389 14.1693
      vertex 40.866 5.25 14.0933
    endloop
  endfacet
  facet normal 0 -0.866025 0.5
    outer loop
      vertex 45 15 30.9808
      vertex 40.9135 5.20337 14.0125
      vertex 45 0 5
    endloop
  endfacet
  facet normal 0 -0.866025 0.5
    outer loop
      vertex 45 15 30.9808
      vertex 40.866 5.25 14.0933
      vertex 40.9135 5.20337 14.0125
    endloop
  endfacet
  facet normal 0 -0.866025 0.5
    outer loop
      vertex 40.9135 5.20337 14.0125
      vertex 40.9511 5.15451 13.9279
      vertex 45 0 5
    endloop
  endfacet
  facet normal 0 -0.866025 0.5
    outer loop
      vertex 40.1045 4.50274 12.799
      vertex 40 4.5 12.7942
      vertex 45 0 5
    endloop
  endfacet
  facet normal 0 -0.866025 0.5
    outer loop
      vertex 40 4.5 12.7942
      vertex 39.8955 4.50274 12.799
      vertex 45 0 5
    endloop
  endfacet
  facet normal 0 -0.866025 0.5
    outer loop
      vertex 39.8955 4.50274 12.799
      vertex 39.7921 4.51093 12.8132
      vertex 45 0 5
    endloop
  endfacet
  facet normal 0 -0.866025 0.5
    outer loop
      vertex 39.7921 4.51093 12.8132
      vertex 39.691 4.52447 12.8366
      vertex 45 0 5
    endloop
  endfacet
  facet normal 0 -0.866025 0.5
    outer loop
      vertex 39.691 4.52447 12.8366
      vertex 39.5933 4.54323 12.8691
      vertex 45 0 5
    endloop
  endfacet
  facet normal 0 -0.866025 0.5
    outer loop
      vertex 39.5933 4.54323 12.8691
      vertex 39.5 4.56699 12.9103
      vertex 45 0 5
    endloop
  endfacet
  facet normal 0 -0.866025 0.5
    outer loop
      vertex 39.4122 4.59549 12.9596
      vertex 39.3309 4.62843 13.0167
      vertex 45 0 5
    endloop
  endfacet
  facet normal 0 -0.866025 0.5
    outer loop
      vertex 39.3309 4.62843 13.0167
      vertex 39.2569 4.66543 13.0808
      vertex 45 0 5
    endloop
  endfacet
  facet normal 0 -0.866025 0.5
    outer loop
      vertex 39.191 4.70611 13.1512
      vertex 30 10 22.3205
      vertex 39.2569 4.66543 13.0808
    endloop
  endfacet
  facet normal 0 -0.866025 0.5
    outer loop
      vertex 39.134 4.75 13.2272
      vertex 39.0865 4.79663 13.308
      vertex 30 10 22.3205
    endloop
  endfacet
  facet normal 0 -0.866025 0.5
    outer loop
      vertex 39.191 10.2939 22.8295
      vertex 39.2569 10.3346 22.9
      vertex 45 15 30.9808
    endloop
  endfacet
  facet normal 0 -0.866025 0.5
    outer loop
      vertex 39.0489 4.84549 13.3926
      vertex 30 10 22.3205
      vertex 39.0865 4.79663 13.308
    endloop
  endfacet
  facet normal 0 -0.866025 0.5
    outer loop
      vertex 39.0219 4.89604 13.4802
      vertex 30 10 22.3205
      vertex 39.0489 4.84549 13.3926
    endloop
  endfacet
  facet normal 0 -0.866025 0.5
    outer loop
      vertex 39.0055 4.94774 13.5697
      vertex 30 10 22.3205
      vertex 39.0219 4.89604 13.4802
    endloop
  endfacet
  facet normal 0 -0.866025 0.5
    outer loop
      vertex 39.0219 9.89604 22.1405
      vertex 39.0055 9.94774 22.23
      vertex 39.0489 5.15451 13.9279
    endloop
  endfacet
  facet normal 0 -0.866025 0.5
    outer loop
      vertex 39 10 22.3205
      vertex 30 10 22.3205
      vertex 39.0055 9.94774 22.23
    endloop
  endfacet
  facet normal 0 -0.866025 0.5
    outer loop
      vertex 39.0055 10.0523 22.411
      vertex 30 10 22.3205
      vertex 39 10 22.3205
    endloop
  endfacet
  facet normal 0 -0.866025 0.5
    outer loop
      vertex 39.0219 10.104 22.5006
      vertex 30 10 22.3205
      vertex 39.0055 10.0523 22.411
    endloop
  endfacet
  facet normal 0 -0.866025 0.5
    outer loop
      vertex 39.0489 10.1545 22.5881
      vertex 30 10 22.3205
      vertex 39.0219 10.104 22.5006
    endloop
  endfacet
  facet normal 0 -0.866025 0.5
    outer loop
      vertex 39.0865 10.2034 22.6728
      vertex 30 10 22.3205
      vertex 39.0489 10.1545 22.5881
    endloop
  endfacet
  facet normal 0 -0.866025 0.5
    outer loop
      vertex 39.134 10.25 22.7535
      vertex 30 10 22.3205
      vertex 39.0865 10.2034 22.6728
    endloop
  endfacet
  facet normal 0 -0.866025 0.5
    outer loop
      vertex 45 15 30.9808
      vertex 30 10 22.3205
      vertex 39.134 10.25 22.7535
    endloop
  endfacet
  facet normal 0 -0.866025 0.5
    outer loop
      vertex 39.2569 10.3346 22.9
      vertex 39.3309 10.3716 22.9641
      vertex 45 15 30.9808
    endloop
  endfacet
  facet normal 0 -0.866025 0.5
    outer loop
      vertex 45 15 30.9808
      vertex 39.134 10.25 22.7535
      vertex 39.191 10.2939 22.8295
    endloop
  endfacet
  facet normal 0 -0.866025 0.5
    outer loop
      vertex 39.3309 10.3716 22.9641
      vertex 39.4122 10.4045 23.0211
      vertex 45 15 30.9808
    endloop
  endfacet
  facet normal 0 -0.866025 0.5
    outer loop
      vertex 39.4122 10.4045 23.0211
      vertex 39.5 10.433 23.0705
      vertex 45 15 30.9808
    endloop
  endfacet
  facet normal 0 -0.866025 0.5
    outer loop
      vertex 39.5 10.433 23.0705
      vertex 39.5933 10.4568 23.1117
      vertex 45 15 30.9808
    endloop
  endfacet
  facet normal 0 -0.866025 0.5
    outer loop
      vertex 39.5933 10.4568 23.1117
      vertex 39.691 10.4755 23.1441
      vertex 45 15 30.9808
    endloop
  endfacet
  facet normal 0 -0.866025 0.5
    outer loop
      vertex 40.9781 9.89604 22.1405
      vertex 40.9511 9.84549 22.0529
      vertex 39.0489 5.15451 13.9279
    endloop
  endfacet
  facet normal 0 -0.866025 0.5
    outer loop
      vertex 39.5933 9.54323 21.5294
      vertex 39.5 9.56699 21.5705
      vertex 39.0489 5.15451 13.9279
    endloop
  endfacet
  facet normal 0 -0.866025 0.5
    outer loop
      vertex 45 15 30.9808
      vertex 39.691 10.4755 23.1441
      vertex 39.7921 10.4891 23.1676
    endloop
  endfacet
  facet normal 0 -0.866025 0.5
    outer loop
      vertex 39.691 9.52447 21.4969
      vertex 39.5933 9.54323 21.5294
      vertex 39.0489 5.15451 13.9279
    endloop
  endfacet
  facet normal 0 -0.866025 0.5
    outer loop
      vertex 45 15 30.9808
      vertex 39.7921 10.4891 23.1676
      vertex 39.8955 10.4973 23.1818
    endloop
  endfacet
  facet normal 0 -0.866025 0.5
    outer loop
      vertex 39.7921 9.51093 21.4734
      vertex 39.691 9.52447 21.4969
      vertex 39.0489 5.15451 13.9279
    endloop
  endfacet
  facet normal 0 -0.866025 0.5
    outer loop
      vertex 45 15 30.9808
      vertex 39.8955 10.4973 23.1818
      vertex 40 10.5 23.1865
    endloop
  endfacet
  facet normal 0 -0.866025 0.5
    outer loop
      vertex 39.8955 9.50274 21.4592
      vertex 39.7921 9.51093 21.4734
      vertex 39.0489 5.15451 13.9279
    endloop
  endfacet
  facet normal 0 -0.866025 0.5
    outer loop
      vertex 45 15 30.9808
      vertex 40 10.5 23.1865
      vertex 40.1045 10.4973 23.1818
    endloop
  endfacet
  facet normal 0 -0.866025 0.5
    outer loop
      vertex 45 15 30.9808
      vertex 40.1045 10.4973 23.1818
      vertex 40.2079 10.4891 23.1676
    endloop
  endfacet
  facet normal 0 -0.866025 0.5
    outer loop
      vertex 45 15 30.9808
      vertex 40.2079 10.4891 23.1676
      vertex 40.309 10.4755 23.1441
    endloop
  endfacet
  facet normal 0 -0.866025 0.5
    outer loop
      vertex 40.1045 9.50274 21.4592
      vertex 40 9.5 21.4545
      vertex 39.0489 5.15451 13.9279
    endloop
  endfacet
  facet normal 0 -0.866025 0.5
    outer loop
      vertex 45 15 30.9808
      vertex 40.309 10.4755 23.1441
      vertex 40.4067 10.4568 23.1117
    endloop
  endfacet
  facet normal 0 -0.866025 0.5
    outer loop
      vertex 40.2079 9.51093 21.4734
      vertex 40.1045 9.50274 21.4592
      vertex 39.0489 5.15451 13.9279
    endloop
  endfacet
  facet normal 0 -0.866025 0.5
    outer loop
      vertex 45 15 30.9808
      vertex 40.4067 10.4568 23.1117
      vertex 40.5 10.433 23.0705
    endloop
  endfacet
  facet normal 0 -0.866025 0.5
    outer loop
      vertex 40.309 9.52447 21.4969
      vertex 40.2079 9.51093 21.4734
      vertex 39.0489 5.15451 13.9279
    endloop
  endfacet
  facet normal 0 -0.866025 0.5
    outer loop
      vertex 45 15 30.9808
      vertex 40.5 10.433 23.0705
      vertex 40.5878 10.4045 23.0211
    endloop
  endfacet
  facet normal 0 -0.866025 0.5
    outer loop
      vertex 40.4067 9.54323 21.5294
      vertex 40.309 9.52447 21.4969
      vertex 39.0489 5.15451 13.9279
    endloop
  endfacet
  facet normal 0 -0.866025 0.5
    outer loop
      vertex 45 15 30.9808
      vertex 40.5878 10.4045 23.0211
      vertex 40.6691 10.3716 22.9641
    endloop
  endfacet
  facet normal 0 -0.866025 0.5
    outer loop
      vertex 40 9.5 21.4545
      vertex 39.8955 9.50274 21.4592
      vertex 39.0489 5.15451 13.9279
    endloop
  endfacet
  facet normal 0 -0.866025 0.5
    outer loop
      vertex 45 15 30.9808
      vertex 40.6691 10.3716 22.9641
      vertex 40.7431 10.3346 22.9
    endloop
  endfacet
  facet normal 0 -0.866025 0.5
    outer loop
      vertex 45 15 30.9808
      vertex 40.7431 10.3346 22.9
      vertex 40.809 10.2939 22.8295
    endloop
  endfacet
  facet normal 0 -0.866025 0.5
    outer loop
      vertex 40.5878 9.59549 21.6199
      vertex 40.5 9.56699 21.5705
      vertex 39.0489 5.15451 13.9279
    endloop
  endfacet
  facet normal 0 -0.866025 0.5
    outer loop
      vertex 45 15 30.9808
      vertex 40.809 10.2939 22.8295
      vertex 40.866 10.25 22.7535
    endloop
  endfacet
  facet normal 0 -0.866025 0.5
    outer loop
      vertex 40.6691 9.62843 21.6769
      vertex 40.5878 9.59549 21.6199
      vertex 39.0489 5.15451 13.9279
    endloop
  endfacet
  facet normal 0 -0.866025 0.5
    outer loop
      vertex 45 15 30.9808
      vertex 40.866 10.25 22.7535
      vertex 40.9135 10.2034 22.6728
    endloop
  endfacet
  facet normal 0 -0.866025 0.5
    outer loop
      vertex 40.7431 9.66543 21.741
      vertex 40.6691 9.62843 21.6769
      vertex 39.0489 5.15451 13.9279
    endloop
  endfacet
  facet normal 0 -0.866025 0.5
    outer loop
      vertex 45 15 30.9808
      vertex 40.9135 10.2034 22.6728
      vertex 40.9511 10.1545 22.5881
    endloop
  endfacet
  facet normal 0 -0.866025 0.5
    outer loop
      vertex 40.809 9.70611 21.8115
      vertex 40.7431 9.66543 21.741
      vertex 39.0489 5.15451 13.9279
    endloop
  endfacet
  facet normal 0 -0.866025 0.5
    outer loop
      vertex 45 15 30.9808
      vertex 40.9511 10.1545 22.5881
      vertex 40.9781 10.104 22.5006
    endloop
  endfacet
  facet normal 0 -0.866025 0.5
    outer loop
      vertex 40.866 9.75 21.8875
      vertex 40.809 9.70611 21.8115
      vertex 39.0489 5.15451 13.9279
    endloop
  endfacet
  facet normal 0 -0.866025 0.5
    outer loop
      vertex 45 15 30.9808
      vertex 40.9781 10.104 22.5006
      vertex 40.9945 10.0523 22.411
    endloop
  endfacet
  facet normal 0 -0.866025 0.5
    outer loop
      vertex 40.9135 9.79663 21.9683
      vertex 40.866 9.75 21.8875
      vertex 39.0489 5.15451 13.9279
    endloop
  endfacet
  facet normal 0 -0.866025 0.5
    outer loop
      vertex 45 15 30.9808
      vertex 40.9945 10.0523 22.411
      vertex 41 10 22.3205
    endloop
  endfacet
  facet normal 0 -0.866025 0.5
    outer loop
      vertex 40.9511 9.84549 22.0529
      vertex 40.9135 9.79663 21.9683
      vertex 39.0489 5.15451 13.9279
    endloop
  endfacet
  facet normal 0 -0.866025 0.5
    outer loop
      vertex 45 15 30.9808
      vertex 41 10 22.3205
      vertex 40.9945 9.94774 22.23
    endloop
  endfacet
  facet normal 0 -0.866025 0.5
    outer loop
      vertex 45 15 30.9808
      vertex 40.9781 9.89604 22.1405
      vertex 39.0489 5.15451 13.9279
    endloop
  endfacet
  facet normal 0 -0.866025 0.5
    outer loop
      vertex 45 15 30.9808
      vertex 40.9945 9.94774 22.23
      vertex 40.9781 9.89604 22.1405
    endloop
  endfacet
  facet normal 0 -0.866025 0.5
    outer loop
      vertex 39.5 9.56699 21.5705
      vertex 39.4122 9.59549 21.6199
      vertex 39.0489 5.15451 13.9279
    endloop
  endfacet
  facet normal 0 -0.866025 0.5
    outer loop
      vertex 39.4122 9.59549 21.6199
      vertex 39.3309 9.62843 21.6769
      vertex 39.0489 5.15451 13.9279
    endloop
  endfacet
  facet normal 0 -0.866025 0.5
    outer loop
      vertex 39.3309 9.62843 21.6769
      vertex 39.2569 9.66543 21.741
      vertex 39.0489 5.15451 13.9279
    endloop
  endfacet
  facet normal 0 -0.866025 0.5
    outer loop
      vertex 39.2569 9.66543 21.741
      vertex 39.191 9.70611 21.8115
      vertex 39.0489 5.15451 13.9279
    endloop
  endfacet
  facet normal 0 -0.866025 0.5
    outer loop
      vertex 39.191 9.70611 21.8115
      vertex 39.134 9.75 21.8875
      vertex 39.0489 5.15451 13.9279
    endloop
  endfacet
  facet normal 0 -0.866025 0.5
    outer loop
      vertex 39.134 9.75 21.8875
      vertex 39.0865 9.79663 21.9683
      vertex 39.0489 5.15451 13.9279
    endloop
  endfacet
  facet normal 0 -0.866025 0.5
    outer loop
      vertex 39.0865 9.79663 21.9683
      vertex 39.0489 9.84549 22.0529
      vertex 39.0489 5.15451 13.9279
    endloop
  endfacet
  facet normal 0 -0.866025 0.5
    outer loop
      vertex 39.0489 9.84549 22.0529
      vertex 39.0219 9.89604 22.1405
      vertex 39.0489 5.15451 13.9279
    endloop
  endfacet
  facet normal 0 -0.866025 0.5
    outer loop
      vertex 30 5 13.6603
      vertex 10 5 13.6603
      vertex 45 0 5
    endloop
  endfacet
  facet normal 0 -0.866025 0.5
    outer loop
      vertex 10 10 22.3205
      vertex 30 10 22.3205
      vertex 5 15 30.9808
    endloop
  endfacet
  facet normal -1 0 0
    outer loop
      vertex 45 15 30.9968
      vertex 45 15 30.9808
      vertex 45 0 5.016
    endloop
  endfacet
  facet normal -1 0 0
    outer loop
      vertex 45 0 5
      vertex 45 0 5.016
      vertex 45 15 30.9808
    endloop
  endfacet
  facet normal 0 -0.866025 0.5
    outer loop
      vertex 47 0 5.016
      vertex 47 15.0019 31
      vertex 45 15.0019 31
    endloop
  endfacet
  facet normal 0 -0.866025 0.5
    outer loop
      vertex 45 0 5.016
      vertex 47 0 5.016
      vertex 45 15 30.9968
    endloop
  endfacet
  facet normal 0 -0.866025 0.5
    outer loop
      vertex 45 15 30.9968
      vertex 47 0 5.016
      vertex 45 15.0019 31
    endloop
  endfacet
  facet normal 1 0 0
    outer loop
      vertex 47 0 5.016
      vertex 47 0 0
      vertex 47 20 0
    endloop
  endfacet
  facet normal 1 0 0
    outer loop
      vertex 47 15.0019 31
      vertex 47 0 5.016
      vertex 47 20 31
    endloop
  endfacet
  facet normal 1 0 0
    outer loop
      vertex 47 20 31
      vertex 47 0 5.016
      vertex 47 20 0
    endloop
  endfacet
  facet normal 0 1 0
    outer loop
      vertex 3 20 0
      vertex 3 20 31
      vertex 5 20 0
    endloop
  endfacet
  facet normal 0 1 0
    outer loop
      vertex 5 20 29
      vertex 3 20 31
      vertex 47 20 31
    endloop
  endfacet
  facet normal 0 1 0
    outer loop
      vertex 45 20 0
      vertex 47 20 31
      vertex 47 20 0
    endloop
  endfacet
  facet normal 0 1 0
    outer loop
      vertex 45 20 29
      vertex 47 20 31
      vertex 45 20 0
    endloop
  endfacet
  facet normal 0 1 0
    outer loop
      vertex 5 20 0
      vertex 3 20 31
      vertex 5 20 29
    endloop
  endfacet
  facet normal 0 1 0
    outer loop
      vertex 5 20 29
      vertex 47 20 31
      vertex 45 20 29
    endloop
  endfacet
  facet normal -1 0 0
    outer loop
      vertex 45 16.1658 29
      vertex 45 20 29
      vertex 45 2 4.4641
    endloop
  endfacet
  facet normal -1 0 0
    outer loop
      vertex 45 2 4.4641
      vertex 45 20 29
      vertex 45 20 0
    endloop
  endfacet
  facet normal -1 0 0
    outer loop
      vertex 45 2 4.4641
      vertex 45 20 0
      vertex 45 2 0
    endloop
  endfacet
  facet normal 0 1 0
    outer loop
      vertex 5 2 0
      vertex 5 2 4.4641
      vertex 45 2 0
    endloop
  endfacet
  facet normal 0 1 0
    outer loop
      vertex 45 2 0
      vertex 5 2 4.4641
      vertex 45 2 4.4641
    endloop
  endfacet
  facet normal 1 0 0
    outer loop
      vertex 5 20 0
      vertex 5 20 29
      vertex 5 16.1658 29
    endloop
  endfacet
  facet normal 1 0 0
    outer loop
      vertex 5 2 0
      vertex 5 20 0
      vertex 5 2 4.4641
    endloop
  endfacet
  facet normal 1 0 0
    outer loop
      vertex 5 2 4.4641
      vertex 5 20 0
      vertex 5 16.1658 29
    endloop
  endfacet
  facet normal -1 0 0
    outer loop
      vertex 3 2 0
      vertex 3 2 31
      vertex 3 20 0
    endloop
  endfacet
  facet normal -1 0 0
    outer loop
      vertex 3 20 0
      vertex 3 2 31
      vertex 3 20 31
    endloop
  endfacet
  facet normal 1 0 0
    outer loop
      vertex 45 15 31
      vertex 45 15 30.9968
      vertex 45 15.0019 31
    endloop
  endfacet
  facet normal 0 -1 0
    outer loop
      vertex 5 15 31
      vertex 5 15 30.9808
      vertex 45 15 30.9808
    endloop
  endfacet
  facet normal 0 -1 0
    outer loop
      vertex 45 15 31
      vertex 5 15 31
      vertex 45 15 30.9968
    endloop
  endfacet
  facet normal 0 -1 0
    outer loop
      vertex 45 15 30.9968
      vertex 5 15 31
      vertex 45 15 30.9808
    endloop
  endfacet
  facet normal 1 0 0
    outer loop
      vertex 10 6.73205 12.6603
      vertex 10 11.7321 21.3205
      vertex 10 10 22.3205
    endloop
  endfacet
  facet normal 1 0 0
    outer loop
      vertex 10 5 13.6603
      vertex 10 6.73205 12.6603
      vertex 10 10 22.3205
    endloop
  endfacet
  facet normal 0 0.5 0.866025
    outer loop
      vertex 30 5 13.6603
      vertex 30 6.73205 12.6603
      vertex 10 6.73205 12.6603
    endloop
  endfacet
  facet normal 0 0.5 0.866025
    outer loop
      vertex 10 5 13.6603
      vertex 30 5 13.6603
      vertex 10 6.73205 12.6603
    endloop
  endfacet
  facet normal -1 0 0
    outer loop
      vertex 30 11.7321 21.3205
      vertex 30 6.73205 12.6603
      vertex 30 10 22.3205
    endloop
  endfacet
  facet normal -1 0 0
    outer loop
      vertex 30 10 22.3205
      vertex 30 6.73205 12.6603
      vertex 30 5 13.6603
    endloop
  endfacet
  facet normal 0 -0.5 -0.866025
    outer loop
      vertex 30 11.7321 21.3205
      vertex 30 10 22.3205
      vertex 10 11.7321 21.3205
    endloop
  endfacet
  facet normal 0 -0.5 -0.866025
    outer loop
      vertex 10 11.7321 21.3205
      vertex 30 10 22.3205
      vertex 10 10 22.3205
    endloop
  endfacet
  facet normal 0.987689 0.0782153 0.135473
    outer loop
      vertex 39.0219 4.89604 13.4802
      vertex 39.0219 6.62809 12.4802
      vertex 39.0055 6.67979 12.5697
    endloop
  endfacet
  facet normal 0.987689 0.0782153 0.135473
    outer loop
      vertex 39.0055 4.94774 13.5697
      vertex 39.0219 4.89604 13.4802
      vertex 39.0055 6.67979 12.5697
    endloop
  endfacet
  facet normal 0.99863 0.0261676 0.0453236
    outer loop
      vertex 39.0055 4.94774 13.5697
      vertex 39.0055 6.67979 12.5697
      vertex 39 6.73205 12.6603
    endloop
  endfacet
  facet normal 0.99863 0.0261676 0.0453236
    outer loop
      vertex 39 5 13.6603
      vertex 39.0055 4.94774 13.5697
      vertex 39 6.73205 12.6603
    endloop
  endfacet
  facet normal 0.965926 0.12941 0.224144
    outer loop
      vertex 39.0489 4.84549 13.3926
      vertex 39.0489 6.57754 12.3926
      vertex 39.0219 6.62809 12.4802
    endloop
  endfacet
  facet normal 0.965926 0.12941 0.224144
    outer loop
      vertex 39.0219 4.89604 13.4802
      vertex 39.0489 4.84549 13.3926
      vertex 39.0219 6.62809 12.4802
    endloop
  endfacet
  facet normal 0.933578 0.179187 0.310362
    outer loop
      vertex 39.0865 4.79663 13.308
      vertex 39.0865 6.52868 12.308
      vertex 39.0489 6.57754 12.3926
    endloop
  endfacet
  facet normal 0.933578 0.179187 0.310362
    outer loop
      vertex 39.0489 4.84549 13.3926
      vertex 39.0865 4.79663 13.308
      vertex 39.0489 6.57754 12.3926
    endloop
  endfacet
  facet normal 0.891006 0.226996 0.393168
    outer loop
      vertex 39.134 4.75 13.2272
      vertex 39.134 6.48205 12.2272
      vertex 39.0865 6.52868 12.308
    endloop
  endfacet
  facet normal 0.891006 0.226996 0.393168
    outer loop
      vertex 39.0865 4.79663 13.308
      vertex 39.134 4.75 13.2272
      vertex 39.0865 6.52868 12.308
    endloop
  endfacet
  facet normal 0.838672 0.272319 0.47167
    outer loop
      vertex 39.191 4.70611 13.1512
      vertex 39.191 6.43816 12.1512
      vertex 39.134 6.48205 12.2272
    endloop
  endfacet
  facet normal 0.838672 0.272319 0.47167
    outer loop
      vertex 39.134 4.75 13.2272
      vertex 39.191 4.70611 13.1512
      vertex 39.134 6.48205 12.2272
    endloop
  endfacet
  facet normal 0.777149 0.314658 0.545004
    outer loop
      vertex 39.2569 4.66543 13.0808
      vertex 39.2569 6.39749 12.0808
      vertex 39.191 6.43816 12.1512
    endloop
  endfacet
  facet normal 0.777149 0.314658 0.545004
    outer loop
      vertex 39.191 4.70611 13.1512
      vertex 39.2569 4.66543 13.0808
      vertex 39.191 6.43816 12.1512
    endloop
  endfacet
  facet normal 0.707107 0.353553 0.612372
    outer loop
      vertex 39.3309 4.62843 13.0167
      vertex 39.3309 6.36048 12.0167
      vertex 39.2569 6.39749 12.0808
    endloop
  endfacet
  facet normal 0.707107 0.353553 0.612372
    outer loop
      vertex 39.2569 4.66543 13.0808
      vertex 39.3309 4.62843 13.0167
      vertex 39.2569 6.39749 12.0808
    endloop
  endfacet
  facet normal 0.629316 0.388575 0.673031
    outer loop
      vertex 39.4122 4.59549 12.9596
      vertex 39.4122 6.32754 11.9596
      vertex 39.3309 6.36048 12.0167
    endloop
  endfacet
  facet normal 0.629316 0.388575 0.673031
    outer loop
      vertex 39.3309 4.62843 13.0167
      vertex 39.4122 4.59549 12.9596
      vertex 39.3309 6.36048 12.0167
    endloop
  endfacet
  facet normal 0.544637 0.419336 0.726311
    outer loop
      vertex 39.5 4.56699 12.9103
      vertex 39.5 6.29904 11.9103
      vertex 39.4122 6.32754 11.9596
    endloop
  endfacet
  facet normal 0.544637 0.419336 0.726311
    outer loop
      vertex 39.4122 4.59549 12.9596
      vertex 39.5 4.56699 12.9103
      vertex 39.4122 6.32754 11.9596
    endloop
  endfacet
  facet normal 0.453991 0.445503 0.771634
    outer loop
      vertex 39.5933 4.54323 12.8691
      vertex 39.5933 6.27528 11.8691
      vertex 39.5 6.29904 11.9103
    endloop
  endfacet
  facet normal 0.453991 0.445503 0.771634
    outer loop
      vertex 39.5 4.56699 12.9103
      vertex 39.5933 4.54323 12.8691
      vertex 39.5 6.29904 11.9103
    endloop
  endfacet
  facet normal 0.358375 0.466789 0.808502
    outer loop
      vertex 39.691 4.52447 12.8366
      vertex 39.691 6.25652 11.8366
      vertex 39.5933 6.27528 11.8691
    endloop
  endfacet
  facet normal 0.358375 0.466789 0.808502
    outer loop
      vertex 39.5933 4.54323 12.8691
      vertex 39.691 4.52447 12.8366
      vertex 39.5933 6.27528 11.8691
    endloop
  endfacet
  facet normal 0.258819 0.482963 0.836516
    outer loop
      vertex 39.7921 4.51093 12.8132
      vertex 39.7921 6.24298 11.8132
      vertex 39.691 6.25652 11.8366
    endloop
  endfacet
  facet normal 0.258819 0.482963 0.836516
    outer loop
      vertex 39.691 4.52447 12.8366
      vertex 39.7921 4.51093 12.8132
      vertex 39.691 6.25652 11.8366
    endloop
  endfacet
  facet normal 0.156431 0.493844 0.855364
    outer loop
      vertex 39.8955 4.50274 12.799
      vertex 39.8955 6.23479 11.799
      vertex 39.7921 6.24298 11.8132
    endloop
  endfacet
  facet normal 0.156431 0.493844 0.855364
    outer loop
      vertex 39.7921 4.51093 12.8132
      vertex 39.8955 4.50274 12.799
      vertex 39.7921 6.24298 11.8132
    endloop
  endfacet
  facet normal 0.0523352 0.499315 0.864839
    outer loop
      vertex 40 4.5 12.7942
      vertex 40 6.23205 11.7942
      vertex 39.8955 6.23479 11.799
    endloop
  endfacet
  facet normal 0.0523352 0.499315 0.864839
    outer loop
      vertex 39.8955 4.50274 12.799
      vertex 40 4.5 12.7942
      vertex 39.8955 6.23479 11.799
    endloop
  endfacet
  facet normal -0.0523352 0.499315 0.864839
    outer loop
      vertex 40.1045 4.50274 12.799
      vertex 40.1045 6.23479 11.799
      vertex 40 6.23205 11.7942
    endloop
  endfacet
  facet normal -0.0523352 0.499315 0.864839
    outer loop
      vertex 40 4.5 12.7942
      vertex 40.1045 4.50274 12.799
      vertex 40 6.23205 11.7942
    endloop
  endfacet
  facet normal -0.156431 0.493844 0.855364
    outer loop
      vertex 40.2079 4.51093 12.8132
      vertex 40.2079 6.24298 11.8132
      vertex 40.1045 6.23479 11.799
    endloop
  endfacet
  facet normal -0.156431 0.493844 0.855364
    outer loop
      vertex 40.1045 4.50274 12.799
      vertex 40.2079 4.51093 12.8132
      vertex 40.1045 6.23479 11.799
    endloop
  endfacet
  facet normal -0.258819 0.482963 0.836516
    outer loop
      vertex 40.309 4.52447 12.8366
      vertex 40.309 6.25652 11.8366
      vertex 40.2079 6.24298 11.8132
    endloop
  endfacet
  facet normal -0.258819 0.482963 0.836516
    outer loop
      vertex 40.2079 4.51093 12.8132
      vertex 40.309 4.52447 12.8366
      vertex 40.2079 6.24298 11.8132
    endloop
  endfacet
  facet normal -0.358375 0.466789 0.808502
    outer loop
      vertex 40.4067 4.54323 12.8691
      vertex 40.4067 6.27528 11.8691
      vertex 40.309 6.25652 11.8366
    endloop
  endfacet
  facet normal -0.358375 0.466789 0.808502
    outer loop
      vertex 40.309 4.52447 12.8366
      vertex 40.4067 4.54323 12.8691
      vertex 40.309 6.25652 11.8366
    endloop
  endfacet
  facet normal -0.453991 0.445503 0.771634
    outer loop
      vertex 40.5 4.56699 12.9103
      vertex 40.5 6.29904 11.9103
      vertex 40.4067 6.27528 11.8691
    endloop
  endfacet
  facet normal -0.453991 0.445503 0.771634
    outer loop
      vertex 40.4067 4.54323 12.8691
      vertex 40.5 4.56699 12.9103
      vertex 40.4067 6.27528 11.8691
    endloop
  endfacet
  facet normal -0.544637 0.419336 0.726311
    outer loop
      vertex 40.5878 4.59549 12.9596
      vertex 40.5878 6.32754 11.9596
      vertex 40.5 6.29904 11.9103
    endloop
  endfacet
  facet normal -0.544637 0.419336 0.726311
    outer loop
      vertex 40.5 4.56699 12.9103
      vertex 40.5878 4.59549 12.9596
      vertex 40.5 6.29904 11.9103
    endloop
  endfacet
  facet normal -0.629316 0.388575 0.673031
    outer loop
      vertex 40.6691 4.62843 13.0167
      vertex 40.6691 6.36048 12.0167
      vertex 40.5878 6.32754 11.9596
    endloop
  endfacet
  facet normal -0.629316 0.388575 0.673031
    outer loop
      vertex 40.5878 4.59549 12.9596
      vertex 40.6691 4.62843 13.0167
      vertex 40.5878 6.32754 11.9596
    endloop
  endfacet
  facet normal -0.707107 0.353553 0.612372
    outer loop
      vertex 40.7431 6.39749 12.0808
      vertex 40.6691 6.36048 12.0167
      vertex 40.7431 4.66543 13.0808
    endloop
  endfacet
  facet normal -0.707107 0.353553 0.612372
    outer loop
      vertex 40.7431 4.66543 13.0808
      vertex 40.6691 6.36048 12.0167
      vertex 40.6691 4.62843 13.0167
    endloop
  endfacet
  facet normal -0.777149 0.314658 0.545004
    outer loop
      vertex 40.809 6.43816 12.1512
      vertex 40.7431 6.39749 12.0808
      vertex 40.809 4.70611 13.1512
    endloop
  endfacet
  facet normal -0.777149 0.314658 0.545004
    outer loop
      vertex 40.809 4.70611 13.1512
      vertex 40.7431 6.39749 12.0808
      vertex 40.7431 4.66543 13.0808
    endloop
  endfacet
  facet normal -0.838672 0.272319 0.47167
    outer loop
      vertex 40.866 6.48205 12.2272
      vertex 40.809 6.43816 12.1512
      vertex 40.866 4.75 13.2272
    endloop
  endfacet
  facet normal -0.838672 0.272319 0.47167
    outer loop
      vertex 40.866 4.75 13.2272
      vertex 40.809 6.43816 12.1512
      vertex 40.809 4.70611 13.1512
    endloop
  endfacet
  facet normal -0.891006 0.226996 0.393168
    outer loop
      vertex 40.9135 6.52868 12.308
      vertex 40.866 6.48205 12.2272
      vertex 40.9135 4.79663 13.308
    endloop
  endfacet
  facet normal -0.891006 0.226996 0.393168
    outer loop
      vertex 40.9135 4.79663 13.308
      vertex 40.866 6.48205 12.2272
      vertex 40.866 4.75 13.2272
    endloop
  endfacet
  facet normal -0.933578 0.179187 0.310362
    outer loop
      vertex 40.9511 6.57754 12.3926
      vertex 40.9135 6.52868 12.308
      vertex 40.9511 4.84549 13.3926
    endloop
  endfacet
  facet normal -0.933578 0.179187 0.310362
    outer loop
      vertex 40.9511 4.84549 13.3926
      vertex 40.9135 6.52868 12.308
      vertex 40.9135 4.79663 13.308
    endloop
  endfacet
  facet normal -0.965926 0.12941 0.224144
    outer loop
      vertex 40.9781 6.62809 12.4802
      vertex 40.9511 6.57754 12.3926
      vertex 40.9781 4.89604 13.4802
    endloop
  endfacet
  facet normal -0.965926 0.12941 0.224144
    outer loop
      vertex 40.9781 4.89604 13.4802
      vertex 40.9511 6.57754 12.3926
      vertex 40.9511 4.84549 13.3926
    endloop
  endfacet
  facet normal -0.987689 0.0782153 0.135473
    outer loop
      vertex 40.9945 6.67979 12.5697
      vertex 40.9781 6.62809 12.4802
      vertex 40.9945 4.94774 13.5697
    endloop
  endfacet
  facet normal -0.987689 0.0782153 0.135473
    outer loop
      vertex 40.9945 4.94774 13.5697
      vertex 40.9781 6.62809 12.4802
      vertex 40.9781 4.89604 13.4802
    endloop
  endfacet
  facet normal -0.99863 0.0261676 0.0453236
    outer loop
      vertex 41 6.73205 12.6603
      vertex 40.9945 6.67979 12.5697
      vertex 41 5 13.6603
    endloop
  endfacet
  facet normal -0.99863 0.0261676 0.0453236
    outer loop
      vertex 41 5 13.6603
      vertex 40.9945 6.67979 12.5697
      vertex 40.9945 4.94774 13.5697
    endloop
  endfacet
  facet normal -0.99863 -0.0261676 -0.0453236
    outer loop
      vertex 41 6.73205 12.6603
      vertex 41 5 13.6603
      vertex 40.9945 6.78431 12.7508
    endloop
  endfacet
  facet normal -0.99863 -0.0261676 -0.0453236
    outer loop
      vertex 40.9945 6.78431 12.7508
      vertex 41 5 13.6603
      vertex 40.9945 5.05226 13.7508
    endloop
  endfacet
  facet normal -0.987689 -0.0782153 -0.135473
    outer loop
      vertex 40.9945 6.78431 12.7508
      vertex 40.9945 5.05226 13.7508
      vertex 40.9781 6.83601 12.8403
    endloop
  endfacet
  facet normal -0.987689 -0.0782153 -0.135473
    outer loop
      vertex 40.9781 6.83601 12.8403
      vertex 40.9945 5.05226 13.7508
      vertex 40.9781 5.10396 13.8403
    endloop
  endfacet
  facet normal -0.965926 -0.12941 -0.224144
    outer loop
      vertex 40.9781 6.83601 12.8403
      vertex 40.9781 5.10396 13.8403
      vertex 40.9511 6.88656 12.9279
    endloop
  endfacet
  facet normal -0.965926 -0.12941 -0.224144
    outer loop
      vertex 40.9511 6.88656 12.9279
      vertex 40.9781 5.10396 13.8403
      vertex 40.9511 5.15451 13.9279
    endloop
  endfacet
  facet normal -0.933578 -0.179187 -0.310362
    outer loop
      vertex 40.9511 6.88656 12.9279
      vertex 40.9511 5.15451 13.9279
      vertex 40.9135 6.93542 13.0125
    endloop
  endfacet
  facet normal -0.933578 -0.179187 -0.310362
    outer loop
      vertex 40.9135 6.93542 13.0125
      vertex 40.9511 5.15451 13.9279
      vertex 40.9135 5.20337 14.0125
    endloop
  endfacet
  facet normal -0.891006 -0.226996 -0.393168
    outer loop
      vertex 40.9135 6.93542 13.0125
      vertex 40.9135 5.20337 14.0125
      vertex 40.866 6.98205 13.0933
    endloop
  endfacet
  facet normal -0.891006 -0.226996 -0.393168
    outer loop
      vertex 40.866 6.98205 13.0933
      vertex 40.9135 5.20337 14.0125
      vertex 40.866 5.25 14.0933
    endloop
  endfacet
  facet normal -0.838672 -0.272319 -0.47167
    outer loop
      vertex 40.866 6.98205 13.0933
      vertex 40.866 5.25 14.0933
      vertex 40.809 7.02594 13.1693
    endloop
  endfacet
  facet normal -0.838672 -0.272319 -0.47167
    outer loop
      vertex 40.809 7.02594 13.1693
      vertex 40.866 5.25 14.0933
      vertex 40.809 5.29389 14.1693
    endloop
  endfacet
  facet normal -0.777149 -0.314658 -0.545004
    outer loop
      vertex 40.809 7.02594 13.1693
      vertex 40.809 5.29389 14.1693
      vertex 40.7431 7.06662 13.2397
    endloop
  endfacet
  facet normal -0.777149 -0.314658 -0.545004
    outer loop
      vertex 40.7431 7.06662 13.2397
      vertex 40.809 5.29389 14.1693
      vertex 40.7431 5.33457 14.2397
    endloop
  endfacet
  facet normal -0.707107 -0.353553 -0.612372
    outer loop
      vertex 40.7431 7.06662 13.2397
      vertex 40.7431 5.33457 14.2397
      vertex 40.6691 7.10362 13.3038
    endloop
  endfacet
  facet normal -0.707107 -0.353553 -0.612372
    outer loop
      vertex 40.6691 7.10362 13.3038
      vertex 40.7431 5.33457 14.2397
      vertex 40.6691 5.37157 14.3038
    endloop
  endfacet
  facet normal -0.629316 -0.388575 -0.673031
    outer loop
      vertex 40.6691 7.10362 13.3038
      vertex 40.6691 5.37157 14.3038
      vertex 40.5878 7.13656 13.3609
    endloop
  endfacet
  facet normal -0.629316 -0.388575 -0.673031
    outer loop
      vertex 40.5878 7.13656 13.3609
      vertex 40.6691 5.37157 14.3038
      vertex 40.5878 5.40451 14.3609
    endloop
  endfacet
  facet normal -0.544637 -0.419336 -0.726311
    outer loop
      vertex 40.5878 7.13656 13.3609
      vertex 40.5878 5.40451 14.3609
      vertex 40.5 7.16506 13.4103
    endloop
  endfacet
  facet normal -0.544637 -0.419336 -0.726311
    outer loop
      vertex 40.5 7.16506 13.4103
      vertex 40.5878 5.40451 14.3609
      vertex 40.5 5.43301 14.4103
    endloop
  endfacet
  facet normal -0.453991 -0.445503 -0.771634
    outer loop
      vertex 40.5 7.16506 13.4103
      vertex 40.5 5.43301 14.4103
      vertex 40.4067 7.18882 13.4514
    endloop
  endfacet
  facet normal -0.453991 -0.445503 -0.771634
    outer loop
      vertex 40.4067 7.18882 13.4514
      vertex 40.5 5.43301 14.4103
      vertex 40.4067 5.45677 14.4514
    endloop
  endfacet
  facet normal -0.358375 -0.466789 -0.808502
    outer loop
      vertex 40.4067 7.18882 13.4514
      vertex 40.4067 5.45677 14.4514
      vertex 40.309 7.20758 13.4839
    endloop
  endfacet
  facet normal -0.358375 -0.466789 -0.808502
    outer loop
      vertex 40.309 7.20758 13.4839
      vertex 40.4067 5.45677 14.4514
      vertex 40.309 5.47553 14.4839
    endloop
  endfacet
  facet normal -0.258819 -0.482963 -0.836516
    outer loop
      vertex 40.309 7.20758 13.4839
      vertex 40.309 5.47553 14.4839
      vertex 40.2079 7.22112 13.5074
    endloop
  endfacet
  facet normal -0.258819 -0.482963 -0.836516
    outer loop
      vertex 40.2079 7.22112 13.5074
      vertex 40.309 5.47553 14.4839
      vertex 40.2079 5.48907 14.5074
    endloop
  endfacet
  facet normal -0.156431 -0.493844 -0.855364
    outer loop
      vertex 40.2079 7.22112 13.5074
      vertex 40.2079 5.48907 14.5074
      vertex 40.1045 7.22931 13.5215
    endloop
  endfacet
  facet normal -0.156431 -0.493844 -0.855364
    outer loop
      vertex 40.1045 7.22931 13.5215
      vertex 40.2079 5.48907 14.5074
      vertex 40.1045 5.49726 14.5215
    endloop
  endfacet
  facet normal -0.0523352 -0.499315 -0.864839
    outer loop
      vertex 40.1045 7.22931 13.5215
      vertex 40.1045 5.49726 14.5215
      vertex 40 7.23205 13.5263
    endloop
  endfacet
  facet normal -0.0523352 -0.499315 -0.864839
    outer loop
      vertex 40 7.23205 13.5263
      vertex 40.1045 5.49726 14.5215
      vertex 40 5.5 14.5263
    endloop
  endfacet
  facet normal 0.0523352 -0.499315 -0.864839
    outer loop
      vertex 40 7.23205 13.5263
      vertex 40 5.5 14.5263
      vertex 39.8955 7.22931 13.5215
    endloop
  endfacet
  facet normal 0.0523352 -0.499315 -0.864839
    outer loop
      vertex 39.8955 7.22931 13.5215
      vertex 40 5.5 14.5263
      vertex 39.8955 5.49726 14.5215
    endloop
  endfacet
  facet normal 0.156431 -0.493844 -0.855364
    outer loop
      vertex 39.8955 7.22931 13.5215
      vertex 39.8955 5.49726 14.5215
      vertex 39.7921 7.22112 13.5074
    endloop
  endfacet
  facet normal 0.156431 -0.493844 -0.855364
    outer loop
      vertex 39.7921 7.22112 13.5074
      vertex 39.8955 5.49726 14.5215
      vertex 39.7921 5.48907 14.5074
    endloop
  endfacet
  facet normal 0.258819 -0.482963 -0.836516
    outer loop
      vertex 39.7921 7.22112 13.5074
      vertex 39.7921 5.48907 14.5074
      vertex 39.691 7.20758 13.4839
    endloop
  endfacet
  facet normal 0.258819 -0.482963 -0.836516
    outer loop
      vertex 39.691 7.20758 13.4839
      vertex 39.7921 5.48907 14.5074
      vertex 39.691 5.47553 14.4839
    endloop
  endfacet
  facet normal 0.358375 -0.466789 -0.808502
    outer loop
      vertex 39.691 7.20758 13.4839
      vertex 39.691 5.47553 14.4839
      vertex 39.5933 7.18882 13.4514
    endloop
  endfacet
  facet normal 0.358375 -0.466789 -0.808502
    outer loop
      vertex 39.5933 7.18882 13.4514
      vertex 39.691 5.47553 14.4839
      vertex 39.5933 5.45677 14.4514
    endloop
  endfacet
  facet normal 0.453991 -0.445503 -0.771634
    outer loop
      vertex 39.5933 7.18882 13.4514
      vertex 39.5933 5.45677 14.4514
      vertex 39.5 7.16506 13.4103
    endloop
  endfacet
  facet normal 0.453991 -0.445503 -0.771634
    outer loop
      vertex 39.5 7.16506 13.4103
      vertex 39.5933 5.45677 14.4514
      vertex 39.5 5.43301 14.4103
    endloop
  endfacet
  facet normal 0.544637 -0.419336 -0.726311
    outer loop
      vertex 39.5 7.16506 13.4103
      vertex 39.5 5.43301 14.4103
      vertex 39.4122 7.13656 13.3609
    endloop
  endfacet
  facet normal 0.544637 -0.419336 -0.726311
    outer loop
      vertex 39.4122 7.13656 13.3609
      vertex 39.5 5.43301 14.4103
      vertex 39.4122 5.40451 14.3609
    endloop
  endfacet
  facet normal 0.629316 -0.388575 -0.673031
    outer loop
      vertex 39.4122 7.13656 13.3609
      vertex 39.4122 5.40451 14.3609
      vertex 39.3309 7.10362 13.3038
    endloop
  endfacet
  facet normal 0.629316 -0.388575 -0.673031
    outer loop
      vertex 39.3309 7.10362 13.3038
      vertex 39.4122 5.40451 14.3609
      vertex 39.3309 5.37157 14.3038
    endloop
  endfacet
  facet normal 0.707107 -0.353553 -0.612372
    outer loop
      vertex 39.2569 7.06662 13.2397
      vertex 39.3309 7.10362 13.3038
      vertex 39.3309 5.37157 14.3038
    endloop
  endfacet
  facet normal 0.707107 -0.353553 -0.612372
    outer loop
      vertex 39.2569 5.33457 14.2397
      vertex 39.2569 7.06662 13.2397
      vertex 39.3309 5.37157 14.3038
    endloop
  endfacet
  facet normal 0.777149 -0.314658 -0.545004
    outer loop
      vertex 39.191 7.02594 13.1693
      vertex 39.2569 7.06662 13.2397
      vertex 39.2569 5.33457 14.2397
    endloop
  endfacet
  facet normal 0.777149 -0.314658 -0.545004
    outer loop
      vertex 39.191 5.29389 14.1693
      vertex 39.191 7.02594 13.1693
      vertex 39.2569 5.33457 14.2397
    endloop
  endfacet
  facet normal 0.838672 -0.272319 -0.47167
    outer loop
      vertex 39.134 6.98205 13.0933
      vertex 39.191 7.02594 13.1693
      vertex 39.191 5.29389 14.1693
    endloop
  endfacet
  facet normal 0.838672 -0.272319 -0.47167
    outer loop
      vertex 39.134 5.25 14.0933
      vertex 39.134 6.98205 13.0933
      vertex 39.191 5.29389 14.1693
    endloop
  endfacet
  facet normal 0.891006 -0.226996 -0.393168
    outer loop
      vertex 39.0865 6.93542 13.0125
      vertex 39.134 6.98205 13.0933
      vertex 39.134 5.25 14.0933
    endloop
  endfacet
  facet normal 0.891006 -0.226996 -0.393168
    outer loop
      vertex 39.0865 5.20337 14.0125
      vertex 39.0865 6.93542 13.0125
      vertex 39.134 5.25 14.0933
    endloop
  endfacet
  facet normal 0.933578 -0.179187 -0.310362
    outer loop
      vertex 39.0489 6.88656 12.9279
      vertex 39.0865 6.93542 13.0125
      vertex 39.0865 5.20337 14.0125
    endloop
  endfacet
  facet normal 0.933578 -0.179187 -0.310362
    outer loop
      vertex 39.0489 5.15451 13.9279
      vertex 39.0489 6.88656 12.9279
      vertex 39.0865 5.20337 14.0125
    endloop
  endfacet
  facet normal 0.965926 -0.12941 -0.224144
    outer loop
      vertex 39.0219 6.83601 12.8403
      vertex 39.0489 6.88656 12.9279
      vertex 39.0489 5.15451 13.9279
    endloop
  endfacet
  facet normal 0.965926 -0.12941 -0.224144
    outer loop
      vertex 39.0219 5.10396 13.8403
      vertex 39.0219 6.83601 12.8403
      vertex 39.0489 5.15451 13.9279
    endloop
  endfacet
  facet normal 0.987689 -0.0782153 -0.135473
    outer loop
      vertex 39.0055 6.78431 12.7508
      vertex 39.0219 6.83601 12.8403
      vertex 39.0219 5.10396 13.8403
    endloop
  endfacet
  facet normal 0.987689 -0.0782153 -0.135473
    outer loop
      vertex 39.0055 5.05226 13.7508
      vertex 39.0055 6.78431 12.7508
      vertex 39.0219 5.10396 13.8403
    endloop
  endfacet
  facet normal 0.99863 -0.0261676 -0.0453236
    outer loop
      vertex 39 6.73205 12.6603
      vertex 39.0055 6.78431 12.7508
      vertex 39.0055 5.05226 13.7508
    endloop
  endfacet
  facet normal 0.99863 -0.0261676 -0.0453236
    outer loop
      vertex 39 5 13.6603
      vertex 39 6.73205 12.6603
      vertex 39.0055 5.05226 13.7508
    endloop
  endfacet
  facet normal 0.987689 0.0782153 0.135473
    outer loop
      vertex 39.0219 9.89604 22.1405
      vertex 39.0219 11.6281 21.1405
      vertex 39.0055 11.6798 21.23
    endloop
  endfacet
  facet normal 0.987689 0.0782153 0.135473
    outer loop
      vertex 39.0055 9.94774 22.23
      vertex 39.0219 9.89604 22.1405
      vertex 39.0055 11.6798 21.23
    endloop
  endfacet
  facet normal 0.99863 0.0261676 0.0453236
    outer loop
      vertex 39.0055 9.94774 22.23
      vertex 39.0055 11.6798 21.23
      vertex 39 11.7321 21.3205
    endloop
  endfacet
  facet normal 0.99863 0.0261676 0.0453236
    outer loop
      vertex 39 10 22.3205
      vertex 39.0055 9.94774 22.23
      vertex 39 11.7321 21.3205
    endloop
  endfacet
  facet normal 0.965926 0.12941 0.224144
    outer loop
      vertex 39.0489 9.84549 22.0529
      vertex 39.0489 11.5775 21.0529
      vertex 39.0219 11.6281 21.1405
    endloop
  endfacet
  facet normal 0.965926 0.12941 0.224144
    outer loop
      vertex 39.0219 9.89604 22.1405
      vertex 39.0489 9.84549 22.0529
      vertex 39.0219 11.6281 21.1405
    endloop
  endfacet
  facet normal 0.933578 0.179187 0.310362
    outer loop
      vertex 39.0865 9.79663 21.9683
      vertex 39.0865 11.5287 20.9683
      vertex 39.0489 11.5775 21.0529
    endloop
  endfacet
  facet normal 0.933578 0.179187 0.310362
    outer loop
      vertex 39.0489 9.84549 22.0529
      vertex 39.0865 9.79663 21.9683
      vertex 39.0489 11.5775 21.0529
    endloop
  endfacet
  facet normal 0.891006 0.226996 0.393168
    outer loop
      vertex 39.134 9.75 21.8875
      vertex 39.134 11.4821 20.8875
      vertex 39.0865 11.5287 20.9683
    endloop
  endfacet
  facet normal 0.891006 0.226996 0.393168
    outer loop
      vertex 39.0865 9.79663 21.9683
      vertex 39.134 9.75 21.8875
      vertex 39.0865 11.5287 20.9683
    endloop
  endfacet
  facet normal 0.838672 0.272319 0.47167
    outer loop
      vertex 39.191 9.70611 21.8115
      vertex 39.191 11.4382 20.8115
      vertex 39.134 11.4821 20.8875
    endloop
  endfacet
  facet normal 0.838672 0.272319 0.47167
    outer loop
      vertex 39.134 9.75 21.8875
      vertex 39.191 9.70611 21.8115
      vertex 39.134 11.4821 20.8875
    endloop
  endfacet
  facet normal 0.777149 0.314658 0.545004
    outer loop
      vertex 39.2569 9.66543 21.741
      vertex 39.2569 11.3975 20.741
      vertex 39.191 11.4382 20.8115
    endloop
  endfacet
  facet normal 0.777149 0.314658 0.545004
    outer loop
      vertex 39.191 9.70611 21.8115
      vertex 39.2569 9.66543 21.741
      vertex 39.191 11.4382 20.8115
    endloop
  endfacet
  facet normal 0.707107 0.353553 0.612372
    outer loop
      vertex 39.3309 9.62843 21.6769
      vertex 39.3309 11.3605 20.6769
      vertex 39.2569 11.3975 20.741
    endloop
  endfacet
  facet normal 0.707107 0.353553 0.612372
    outer loop
      vertex 39.2569 9.66543 21.741
      vertex 39.3309 9.62843 21.6769
      vertex 39.2569 11.3975 20.741
    endloop
  endfacet
  facet normal 0.629316 0.388575 0.673031
    outer loop
      vertex 39.4122 9.59549 21.6199
      vertex 39.4122 11.3275 20.6199
      vertex 39.3309 11.3605 20.6769
    endloop
  endfacet
  facet normal 0.629316 0.388575 0.673031
    outer loop
      vertex 39.3309 9.62843 21.6769
      vertex 39.4122 9.59549 21.6199
      vertex 39.3309 11.3605 20.6769
    endloop
  endfacet
  facet normal 0.544637 0.419336 0.726311
    outer loop
      vertex 39.5 9.56699 21.5705
      vertex 39.5 11.299 20.5705
      vertex 39.4122 11.3275 20.6199
    endloop
  endfacet
  facet normal 0.544637 0.419336 0.726311
    outer loop
      vertex 39.4122 9.59549 21.6199
      vertex 39.5 9.56699 21.5705
      vertex 39.4122 11.3275 20.6199
    endloop
  endfacet
  facet normal 0.453991 0.445503 0.771634
    outer loop
      vertex 39.5933 9.54323 21.5294
      vertex 39.5933 11.2753 20.5294
      vertex 39.5 11.299 20.5705
    endloop
  endfacet
  facet normal 0.453991 0.445503 0.771634
    outer loop
      vertex 39.5 9.56699 21.5705
      vertex 39.5933 9.54323 21.5294
      vertex 39.5 11.299 20.5705
    endloop
  endfacet
  facet normal 0.358375 0.466789 0.808502
    outer loop
      vertex 39.691 9.52447 21.4969
      vertex 39.691 11.2565 20.4969
      vertex 39.5933 11.2753 20.5294
    endloop
  endfacet
  facet normal 0.358375 0.466789 0.808502
    outer loop
      vertex 39.5933 9.54323 21.5294
      vertex 39.691 9.52447 21.4969
      vertex 39.5933 11.2753 20.5294
    endloop
  endfacet
  facet normal 0.258819 0.482963 0.836516
    outer loop
      vertex 39.7921 9.51093 21.4734
      vertex 39.7921 11.243 20.4734
      vertex 39.691 11.2565 20.4969
    endloop
  endfacet
  facet normal 0.258819 0.482963 0.836516
    outer loop
      vertex 39.691 9.52447 21.4969
      vertex 39.7921 9.51093 21.4734
      vertex 39.691 11.2565 20.4969
    endloop
  endfacet
  facet normal 0.156431 0.493844 0.855364
    outer loop
      vertex 39.8955 9.50274 21.4592
      vertex 39.8955 11.2348 20.4592
      vertex 39.7921 11.243 20.4734
    endloop
  endfacet
  facet normal 0.156431 0.493844 0.855364
    outer loop
      vertex 39.7921 9.51093 21.4734
      vertex 39.8955 9.50274 21.4592
      vertex 39.7921 11.243 20.4734
    endloop
  endfacet
  facet normal 0.0523352 0.499315 0.864839
    outer loop
      vertex 40 9.5 21.4545
      vertex 40 11.2321 20.4545
      vertex 39.8955 11.2348 20.4592
    endloop
  endfacet
  facet normal 0.0523352 0.499315 0.864839
    outer loop
      vertex 39.8955 9.50274 21.4592
      vertex 40 9.5 21.4545
      vertex 39.8955 11.2348 20.4592
    endloop
  endfacet
  facet normal -0.0523352 0.499315 0.864839
    outer loop
      vertex 40.1045 9.50274 21.4592
      vertex 40.1045 11.2348 20.4592
      vertex 40 11.2321 20.4545
    endloop
  endfacet
  facet normal -0.0523352 0.499315 0.864839
    outer loop
      vertex 40 9.5 21.4545
      vertex 40.1045 9.50274 21.4592
      vertex 40 11.2321 20.4545
    endloop
  endfacet
  facet normal -0.156431 0.493844 0.855364
    outer loop
      vertex 40.2079 9.51093 21.4734
      vertex 40.2079 11.243 20.4734
      vertex 40.1045 11.2348 20.4592
    endloop
  endfacet
  facet normal -0.156431 0.493844 0.855364
    outer loop
      vertex 40.1045 9.50274 21.4592
      vertex 40.2079 9.51093 21.4734
      vertex 40.1045 11.2348 20.4592
    endloop
  endfacet
  facet normal -0.258819 0.482963 0.836516
    outer loop
      vertex 40.309 9.52447 21.4969
      vertex 40.309 11.2565 20.4969
      vertex 40.2079 11.243 20.4734
    endloop
  endfacet
  facet normal -0.258819 0.482963 0.836516
    outer loop
      vertex 40.2079 9.51093 21.4734
      vertex 40.309 9.52447 21.4969
      vertex 40.2079 11.243 20.4734
    endloop
  endfacet
  facet normal -0.358375 0.466789 0.808502
    outer loop
      vertex 40.4067 9.54323 21.5294
      vertex 40.4067 11.2753 20.5294
      vertex 40.309 11.2565 20.4969
    endloop
  endfacet
  facet normal -0.358375 0.466789 0.808502
    outer loop
      vertex 40.309 9.52447 21.4969
      vertex 40.4067 9.54323 21.5294
      vertex 40.309 11.2565 20.4969
    endloop
  endfacet
  facet normal -0.453991 0.445503 0.771634
    outer loop
      vertex 40.5 9.56699 21.5705
      vertex 40.5 11.299 20.5705
      vertex 40.4067 11.2753 20.5294
    endloop
  endfacet
  facet normal -0.453991 0.445503 0.771634
    outer loop
      vertex 40.4067 9.54323 21.5294
      vertex 40.5 9.56699 21.5705
      vertex 40.4067 11.2753 20.5294
    endloop
  endfacet
  facet normal -0.544637 0.419336 0.726311
    outer loop
      vertex 40.5878 9.59549 21.6199
      vertex 40.5878 11.3275 20.6199
      vertex 40.5 11.299 20.5705
    endloop
  endfacet
  facet normal -0.544637 0.419336 0.726311
    outer loop
      vertex 40.5 9.56699 21.5705
      vertex 40.5878 9.59549 21.6199
      vertex 40.5 11.299 20.5705
    endloop
  endfacet
  facet normal -0.629316 0.388575 0.673031
    outer loop
      vertex 40.6691 9.62843 21.6769
      vertex 40.6691 11.3605 20.6769
      vertex 40.5878 11.3275 20.6199
    endloop
  endfacet
  facet normal -0.629316 0.388575 0.673031
    outer loop
      vertex 40.5878 9.59549 21.6199
      vertex 40.6691 9.62843 21.6769
      vertex 40.5878 11.3275 20.6199
    endloop
  endfacet
  facet normal -0.707107 0.353553 0.612372
    outer loop
      vertex 40.7431 11.3975 20.741
      vertex 40.6691 11.3605 20.6769
      vertex 40.7431 9.66543 21.741
    endloop
  endfacet
  facet normal -0.707107 0.353553 0.612372
    outer loop
      vertex 40.7431 9.66543 21.741
      vertex 40.6691 11.3605 20.6769
      vertex 40.6691 9.62843 21.6769
    endloop
  endfacet
  facet normal -0.777149 0.314658 0.545004
    outer loop
      vertex 40.809 11.4382 20.8115
      vertex 40.7431 11.3975 20.741
      vertex 40.809 9.70611 21.8115
    endloop
  endfacet
  facet normal -0.777149 0.314658 0.545004
    outer loop
      vertex 40.809 9.70611 21.8115
      vertex 40.7431 11.3975 20.741
      vertex 40.7431 9.66543 21.741
    endloop
  endfacet
  facet normal -0.838672 0.272319 0.47167
    outer loop
      vertex 40.866 11.4821 20.8875
      vertex 40.809 11.4382 20.8115
      vertex 40.866 9.75 21.8875
    endloop
  endfacet
  facet normal -0.838672 0.272319 0.47167
    outer loop
      vertex 40.866 9.75 21.8875
      vertex 40.809 11.4382 20.8115
      vertex 40.809 9.70611 21.8115
    endloop
  endfacet
  facet normal -0.891006 0.226996 0.393168
    outer loop
      vertex 40.9135 11.5287 20.9683
      vertex 40.866 11.4821 20.8875
      vertex 40.9135 9.79663 21.9683
    endloop
  endfacet
  facet normal -0.891006 0.226996 0.393168
    outer loop
      vertex 40.9135 9.79663 21.9683
      vertex 40.866 11.4821 20.8875
      vertex 40.866 9.75 21.8875
    endloop
  endfacet
  facet normal -0.933578 0.179187 0.310362
    outer loop
      vertex 40.9511 11.5775 21.0529
      vertex 40.9135 11.5287 20.9683
      vertex 40.9511 9.84549 22.0529
    endloop
  endfacet
  facet normal -0.933578 0.179187 0.310362
    outer loop
      vertex 40.9511 9.84549 22.0529
      vertex 40.9135 11.5287 20.9683
      vertex 40.9135 9.79663 21.9683
    endloop
  endfacet
  facet normal -0.965926 0.12941 0.224144
    outer loop
      vertex 40.9781 11.6281 21.1405
      vertex 40.9511 11.5775 21.0529
      vertex 40.9781 9.89604 22.1405
    endloop
  endfacet
  facet normal -0.965926 0.12941 0.224144
    outer loop
      vertex 40.9781 9.89604 22.1405
      vertex 40.9511 11.5775 21.0529
      vertex 40.9511 9.84549 22.0529
    endloop
  endfacet
  facet normal -0.987689 0.0782153 0.135473
    outer loop
      vertex 40.9945 11.6798 21.23
      vertex 40.9781 11.6281 21.1405
      vertex 40.9945 9.94774 22.23
    endloop
  endfacet
  facet normal -0.987689 0.0782153 0.135473
    outer loop
      vertex 40.9945 9.94774 22.23
      vertex 40.9781 11.6281 21.1405
      vertex 40.9781 9.89604 22.1405
    endloop
  endfacet
  facet normal -0.99863 0.0261676 0.0453236
    outer loop
      vertex 41 11.7321 21.3205
      vertex 40.9945 11.6798 21.23
      vertex 41 10 22.3205
    endloop
  endfacet
  facet normal -0.99863 0.0261676 0.0453236
    outer loop
      vertex 41 10 22.3205
      vertex 40.9945 11.6798 21.23
      vertex 40.9945 9.94774 22.23
    endloop
  endfacet
  facet normal -0.99863 -0.0261676 -0.0453236
    outer loop
      vertex 41 11.7321 21.3205
      vertex 41 10 22.3205
      vertex 40.9945 11.7843 21.411
    endloop
  endfacet
  facet normal -0.99863 -0.0261676 -0.0453236
    outer loop
      vertex 40.9945 11.7843 21.411
      vertex 41 10 22.3205
      vertex 40.9945 10.0523 22.411
    endloop
  endfacet
  facet normal -0.987689 -0.0782153 -0.135473
    outer loop
      vertex 40.9945 11.7843 21.411
      vertex 40.9945 10.0523 22.411
      vertex 40.9781 11.836 21.5006
    endloop
  endfacet
  facet normal -0.987689 -0.0782153 -0.135473
    outer loop
      vertex 40.9781 11.836 21.5006
      vertex 40.9945 10.0523 22.411
      vertex 40.9781 10.104 22.5006
    endloop
  endfacet
  facet normal -0.965926 -0.12941 -0.224144
    outer loop
      vertex 40.9781 11.836 21.5006
      vertex 40.9781 10.104 22.5006
      vertex 40.9511 11.8866 21.5881
    endloop
  endfacet
  facet normal -0.965926 -0.12941 -0.224144
    outer loop
      vertex 40.9511 11.8866 21.5881
      vertex 40.9781 10.104 22.5006
      vertex 40.9511 10.1545 22.5881
    endloop
  endfacet
  facet normal -0.933578 -0.179187 -0.310362
    outer loop
      vertex 40.9511 11.8866 21.5881
      vertex 40.9511 10.1545 22.5881
      vertex 40.9135 11.9354 21.6728
    endloop
  endfacet
  facet normal -0.933578 -0.179187 -0.310362
    outer loop
      vertex 40.9135 11.9354 21.6728
      vertex 40.9511 10.1545 22.5881
      vertex 40.9135 10.2034 22.6728
    endloop
  endfacet
  facet normal -0.891006 -0.226996 -0.393168
    outer loop
      vertex 40.9135 11.9354 21.6728
      vertex 40.9135 10.2034 22.6728
      vertex 40.866 11.9821 21.7535
    endloop
  endfacet
  facet normal -0.891006 -0.226996 -0.393168
    outer loop
      vertex 40.866 11.9821 21.7535
      vertex 40.9135 10.2034 22.6728
      vertex 40.866 10.25 22.7535
    endloop
  endfacet
  facet normal -0.838672 -0.272319 -0.47167
    outer loop
      vertex 40.866 11.9821 21.7535
      vertex 40.866 10.25 22.7535
      vertex 40.809 12.0259 21.8295
    endloop
  endfacet
  facet normal -0.838672 -0.272319 -0.47167
    outer loop
      vertex 40.809 12.0259 21.8295
      vertex 40.866 10.25 22.7535
      vertex 40.809 10.2939 22.8295
    endloop
  endfacet
  facet normal -0.777149 -0.314658 -0.545004
    outer loop
      vertex 40.809 12.0259 21.8295
      vertex 40.809 10.2939 22.8295
      vertex 40.7431 12.0666 21.9
    endloop
  endfacet
  facet normal -0.777149 -0.314658 -0.545004
    outer loop
      vertex 40.7431 12.0666 21.9
      vertex 40.809 10.2939 22.8295
      vertex 40.7431 10.3346 22.9
    endloop
  endfacet
  facet normal -0.707107 -0.353553 -0.612372
    outer loop
      vertex 40.7431 12.0666 21.9
      vertex 40.7431 10.3346 22.9
      vertex 40.6691 12.1036 21.9641
    endloop
  endfacet
  facet normal -0.707107 -0.353553 -0.612372
    outer loop
      vertex 40.6691 12.1036 21.9641
      vertex 40.7431 10.3346 22.9
      vertex 40.6691 10.3716 22.9641
    endloop
  endfacet
  facet normal -0.629316 -0.388575 -0.673031
    outer loop
      vertex 40.6691 12.1036 21.9641
      vertex 40.6691 10.3716 22.9641
      vertex 40.5878 12.1366 22.0211
    endloop
  endfacet
  facet normal -0.629316 -0.388575 -0.673031
    outer loop
      vertex 40.5878 12.1366 22.0211
      vertex 40.6691 10.3716 22.9641
      vertex 40.5878 10.4045 23.0211
    endloop
  endfacet
  facet normal -0.544637 -0.419336 -0.726311
    outer loop
      vertex 40.5878 12.1366 22.0211
      vertex 40.5878 10.4045 23.0211
      vertex 40.5 12.1651 22.0705
    endloop
  endfacet
  facet normal -0.544637 -0.419336 -0.726311
    outer loop
      vertex 40.5 12.1651 22.0705
      vertex 40.5878 10.4045 23.0211
      vertex 40.5 10.433 23.0705
    endloop
  endfacet
  facet normal -0.453991 -0.445503 -0.771634
    outer loop
      vertex 40.5 12.1651 22.0705
      vertex 40.5 10.433 23.0705
      vertex 40.4067 12.1888 22.1117
    endloop
  endfacet
  facet normal -0.453991 -0.445503 -0.771634
    outer loop
      vertex 40.4067 12.1888 22.1117
      vertex 40.5 10.433 23.0705
      vertex 40.4067 10.4568 23.1117
    endloop
  endfacet
  facet normal -0.358375 -0.466789 -0.808502
    outer loop
      vertex 40.4067 12.1888 22.1117
      vertex 40.4067 10.4568 23.1117
      vertex 40.309 12.2076 22.1441
    endloop
  endfacet
  facet normal -0.358375 -0.466789 -0.808502
    outer loop
      vertex 40.309 12.2076 22.1441
      vertex 40.4067 10.4568 23.1117
      vertex 40.309 10.4755 23.1441
    endloop
  endfacet
  facet normal -0.258819 -0.482963 -0.836516
    outer loop
      vertex 40.309 12.2076 22.1441
      vertex 40.309 10.4755 23.1441
      vertex 40.2079 12.2211 22.1676
    endloop
  endfacet
  facet normal -0.258819 -0.482963 -0.836516
    outer loop
      vertex 40.2079 12.2211 22.1676
      vertex 40.309 10.4755 23.1441
      vertex 40.2079 10.4891 23.1676
    endloop
  endfacet
  facet normal -0.156431 -0.493844 -0.855364
    outer loop
      vertex 40.2079 12.2211 22.1676
      vertex 40.2079 10.4891 23.1676
      vertex 40.1045 12.2293 22.1818
    endloop
  endfacet
  facet normal -0.156431 -0.493844 -0.855364
    outer loop
      vertex 40.1045 12.2293 22.1818
      vertex 40.2079 10.4891 23.1676
      vertex 40.1045 10.4973 23.1818
    endloop
  endfacet
  facet normal -0.0523352 -0.499315 -0.864839
    outer loop
      vertex 40.1045 12.2293 22.1818
      vertex 40.1045 10.4973 23.1818
      vertex 40 12.2321 22.1865
    endloop
  endfacet
  facet normal -0.0523352 -0.499315 -0.864839
    outer loop
      vertex 40 12.2321 22.1865
      vertex 40.1045 10.4973 23.1818
      vertex 40 10.5 23.1865
    endloop
  endfacet
  facet normal 0.0523352 -0.499315 -0.864839
    outer loop
      vertex 40 12.2321 22.1865
      vertex 40 10.5 23.1865
      vertex 39.8955 12.2293 22.1818
    endloop
  endfacet
  facet normal 0.0523352 -0.499315 -0.864839
    outer loop
      vertex 39.8955 12.2293 22.1818
      vertex 40 10.5 23.1865
      vertex 39.8955 10.4973 23.1818
    endloop
  endfacet
  facet normal 0.156431 -0.493844 -0.855364
    outer loop
      vertex 39.8955 12.2293 22.1818
      vertex 39.8955 10.4973 23.1818
      vertex 39.7921 12.2211 22.1676
    endloop
  endfacet
  facet normal 0.156431 -0.493844 -0.855364
    outer loop
      vertex 39.7921 12.2211 22.1676
      vertex 39.8955 10.4973 23.1818
      vertex 39.7921 10.4891 23.1676
    endloop
  endfacet
  facet normal 0.258819 -0.482963 -0.836516
    outer loop
      vertex 39.7921 12.2211 22.1676
      vertex 39.7921 10.4891 23.1676
      vertex 39.691 12.2076 22.1441
    endloop
  endfacet
  facet normal 0.258819 -0.482963 -0.836516
    outer loop
      vertex 39.691 12.2076 22.1441
      vertex 39.7921 10.4891 23.1676
      vertex 39.691 10.4755 23.1441
    endloop
  endfacet
  facet normal 0.358375 -0.466789 -0.808502
    outer loop
      vertex 39.691 12.2076 22.1441
      vertex 39.691 10.4755 23.1441
      vertex 39.5933 12.1888 22.1117
    endloop
  endfacet
  facet normal 0.358375 -0.466789 -0.808502
    outer loop
      vertex 39.5933 12.1888 22.1117
      vertex 39.691 10.4755 23.1441
      vertex 39.5933 10.4568 23.1117
    endloop
  endfacet
  facet normal 0.453991 -0.445503 -0.771634
    outer loop
      vertex 39.5933 12.1888 22.1117
      vertex 39.5933 10.4568 23.1117
      vertex 39.5 12.1651 22.0705
    endloop
  endfacet
  facet normal 0.453991 -0.445503 -0.771634
    outer loop
      vertex 39.5 12.1651 22.0705
      vertex 39.5933 10.4568 23.1117
      vertex 39.5 10.433 23.0705
    endloop
  endfacet
  facet normal 0.544637 -0.419336 -0.726311
    outer loop
      vertex 39.5 12.1651 22.0705
      vertex 39.5 10.433 23.0705
      vertex 39.4122 12.1366 22.0211
    endloop
  endfacet
  facet normal 0.544637 -0.419336 -0.726311
    outer loop
      vertex 39.4122 12.1366 22.0211
      vertex 39.5 10.433 23.0705
      vertex 39.4122 10.4045 23.0211
    endloop
  endfacet
  facet normal 0.629316 -0.388575 -0.673031
    outer loop
      vertex 39.4122 12.1366 22.0211
      vertex 39.4122 10.4045 23.0211
      vertex 39.3309 12.1036 21.9641
    endloop
  endfacet
  facet normal 0.629316 -0.388575 -0.673031
    outer loop
      vertex 39.3309 12.1036 21.9641
      vertex 39.4122 10.4045 23.0211
      vertex 39.3309 10.3716 22.9641
    endloop
  endfacet
  facet normal 0.707107 -0.353553 -0.612372
    outer loop
      vertex 39.2569 12.0666 21.9
      vertex 39.3309 12.1036 21.9641
      vertex 39.3309 10.3716 22.9641
    endloop
  endfacet
  facet normal 0.707107 -0.353553 -0.612372
    outer loop
      vertex 39.2569 10.3346 22.9
      vertex 39.2569 12.0666 21.9
      vertex 39.3309 10.3716 22.9641
    endloop
  endfacet
  facet normal 0.777149 -0.314658 -0.545004
    outer loop
      vertex 39.191 12.0259 21.8295
      vertex 39.2569 12.0666 21.9
      vertex 39.2569 10.3346 22.9
    endloop
  endfacet
  facet normal 0.777149 -0.314658 -0.545004
    outer loop
      vertex 39.191 10.2939 22.8295
      vertex 39.191 12.0259 21.8295
      vertex 39.2569 10.3346 22.9
    endloop
  endfacet
  facet normal 0.838672 -0.272319 -0.47167
    outer loop
      vertex 39.134 11.9821 21.7535
      vertex 39.191 12.0259 21.8295
      vertex 39.191 10.2939 22.8295
    endloop
  endfacet
  facet normal 0.838672 -0.272319 -0.47167
    outer loop
      vertex 39.134 10.25 22.7535
      vertex 39.134 11.9821 21.7535
      vertex 39.191 10.2939 22.8295
    endloop
  endfacet
  facet normal 0.891006 -0.226996 -0.393168
    outer loop
      vertex 39.0865 11.9354 21.6728
      vertex 39.134 11.9821 21.7535
      vertex 39.134 10.25 22.7535
    endloop
  endfacet
  facet normal 0.891006 -0.226996 -0.393168
    outer loop
      vertex 39.0865 10.2034 22.6728
      vertex 39.0865 11.9354 21.6728
      vertex 39.134 10.25 22.7535
    endloop
  endfacet
  facet normal 0.933578 -0.179187 -0.310362
    outer loop
      vertex 39.0489 11.8866 21.5881
      vertex 39.0865 11.9354 21.6728
      vertex 39.0865 10.2034 22.6728
    endloop
  endfacet
  facet normal 0.933578 -0.179187 -0.310362
    outer loop
      vertex 39.0489 10.1545 22.5881
      vertex 39.0489 11.8866 21.5881
      vertex 39.0865 10.2034 22.6728
    endloop
  endfacet
  facet normal 0.965926 -0.12941 -0.224144
    outer loop
      vertex 39.0219 11.836 21.5006
      vertex 39.0489 11.8866 21.5881
      vertex 39.0489 10.1545 22.5881
    endloop
  endfacet
  facet normal 0.965926 -0.12941 -0.224144
    outer loop
      vertex 39.0219 10.104 22.5006
      vertex 39.0219 11.836 21.5006
      vertex 39.0489 10.1545 22.5881
    endloop
  endfacet
  facet normal 0.987689 -0.0782153 -0.135473
    outer loop
      vertex 39.0055 11.7843 21.411
      vertex 39.0219 11.836 21.5006
      vertex 39.0219 10.104 22.5006
    endloop
  endfacet
  facet normal 0.987689 -0.0782153 -0.135473
    outer loop
      vertex 39.0055 10.0523 22.411
      vertex 39.0055 11.7843 21.411
      vertex 39.0219 10.104 22.5006
    endloop
  endfacet
  facet normal 0.99863 -0.0261676 -0.0453236
    outer loop
      vertex 39 11.7321 21.3205
      vertex 39.0055 11.7843 21.411
      vertex 39.0055 10.0523 22.411
    endloop
  endfacet
  facet normal 0.99863 -0.0261676 -0.0453236
    outer loop
      vertex 39 10 22.3205
      vertex 39 11.7321 21.3205
      vertex 39.0055 10.0523 22.411
    endloop
  endfacet
  facet normal 0 0 -1
    outer loop
      vertex 5 16.1658 29
      vertex 5 20 29
      vertex 45 16.1658 29
    endloop
  endfacet
  facet normal 0 0 -1
    outer loop
      vertex 45 16.1658 29
      vertex 5 20 29
      vertex 45 20 29
    endloop
  endfacet
  facet normal 0 0.866025 -0.5
    outer loop
      vertex 30 11.7321 21.3205
      vertex 5 16.1658 29
      vertex 45 16.1658 29
    endloop
  endfacet
  facet normal 0 0.866025 -0.5
    outer loop
      vertex 5 2 4.4641
      vertex 5 16.1658 29
      vertex 10 11.7321 21.3205
    endloop
  endfacet
  facet normal 0 0.866025 -0.5
    outer loop
      vertex 5 2 4.4641
      vertex 10 11.7321 21.3205
      vertex 10 6.73205 12.6603
    endloop
  endfacet
  facet normal 0 0.866025 -0.5
    outer loop
      vertex 5 2 4.4641
      vertex 10 6.73205 12.6603
      vertex 45 2 4.4641
    endloop
  endfacet
  facet normal 0 0.866025 -0.5
    outer loop
      vertex 30 6.73205 12.6603
      vertex 45 2 4.4641
      vertex 10 6.73205 12.6603
    endloop
  endfacet
  facet normal 0 0.866025 -0.5
    outer loop
      vertex 39.2569 6.39749 12.0808
      vertex 45 2 4.4641
      vertex 39.191 6.43816 12.1512
    endloop
  endfacet
  facet normal 0 0.866025 -0.5
    outer loop
      vertex 39.5933 12.1888 22.1117
      vertex 30 11.7321 21.3205
      vertex 45 16.1658 29
    endloop
  endfacet
  facet normal 0 0.866025 -0.5
    outer loop
      vertex 39.0055 6.67979 12.5697
      vertex 30 11.7321 21.3205
      vertex 39 6.73205 12.6603
    endloop
  endfacet
  facet normal 0 0.866025 -0.5
    outer loop
      vertex 39.0219 6.62809 12.4802
      vertex 30 11.7321 21.3205
      vertex 39.0055 6.67979 12.5697
    endloop
  endfacet
  facet normal 0 0.866025 -0.5
    outer loop
      vertex 39.0489 6.57754 12.3926
      vertex 30 11.7321 21.3205
      vertex 39.0219 6.62809 12.4802
    endloop
  endfacet
  facet normal 0 0.866025 -0.5
    outer loop
      vertex 39.0865 6.52868 12.308
      vertex 30 11.7321 21.3205
      vertex 39.0489 6.57754 12.3926
    endloop
  endfacet
  facet normal 0 0.866025 -0.5
    outer loop
      vertex 39.134 6.48205 12.2272
      vertex 30 11.7321 21.3205
      vertex 39.0865 6.52868 12.308
    endloop
  endfacet
  facet normal 0 0.866025 -0.5
    outer loop
      vertex 39.191 6.43816 12.1512
      vertex 30 11.7321 21.3205
      vertex 39.134 6.48205 12.2272
    endloop
  endfacet
  facet normal 0 0.866025 -0.5
    outer loop
      vertex 45 2 4.4641
      vertex 30 11.7321 21.3205
      vertex 39.191 6.43816 12.1512
    endloop
  endfacet
  facet normal 0 0.866025 -0.5
    outer loop
      vertex 39.3309 6.36048 12.0167
      vertex 45 2 4.4641
      vertex 39.2569 6.39749 12.0808
    endloop
  endfacet
  facet normal 0 0.866025 -0.5
    outer loop
      vertex 39.4122 6.32754 11.9596
      vertex 45 2 4.4641
      vertex 39.3309 6.36048 12.0167
    endloop
  endfacet
  facet normal 0 0.866025 -0.5
    outer loop
      vertex 39.5 6.29904 11.9103
      vertex 45 2 4.4641
      vertex 39.4122 6.32754 11.9596
    endloop
  endfacet
  facet normal 0 0.866025 -0.5
    outer loop
      vertex 39.5933 6.27528 11.8691
      vertex 45 2 4.4641
      vertex 39.5 6.29904 11.9103
    endloop
  endfacet
  facet normal 0 0.866025 -0.5
    outer loop
      vertex 41 6.73205 12.6603
      vertex 45 16.1658 29
      vertex 40.9945 6.67979 12.5697
    endloop
  endfacet
  facet normal 0 0.866025 -0.5
    outer loop
      vertex 45 2 4.4641
      vertex 39.5933 6.27528 11.8691
      vertex 39.691 6.25652 11.8366
    endloop
  endfacet
  facet normal 0 0.866025 -0.5
    outer loop
      vertex 45 2 4.4641
      vertex 39.691 6.25652 11.8366
      vertex 39.7921 6.24298 11.8132
    endloop
  endfacet
  facet normal 0 0.866025 -0.5
    outer loop
      vertex 45 2 4.4641
      vertex 39.7921 6.24298 11.8132
      vertex 39.8955 6.23479 11.799
    endloop
  endfacet
  facet normal 0 0.866025 -0.5
    outer loop
      vertex 45 2 4.4641
      vertex 39.8955 6.23479 11.799
      vertex 40 6.23205 11.7942
    endloop
  endfacet
  facet normal 0 0.866025 -0.5
    outer loop
      vertex 45 2 4.4641
      vertex 40 6.23205 11.7942
      vertex 40.1045 6.23479 11.799
    endloop
  endfacet
  facet normal 0 0.866025 -0.5
    outer loop
      vertex 45 2 4.4641
      vertex 40.1045 6.23479 11.799
      vertex 40.2079 6.24298 11.8132
    endloop
  endfacet
  facet normal 0 0.866025 -0.5
    outer loop
      vertex 45 2 4.4641
      vertex 40.2079 6.24298 11.8132
      vertex 40.309 6.25652 11.8366
    endloop
  endfacet
  facet normal 0 0.866025 -0.5
    outer loop
      vertex 45 2 4.4641
      vertex 40.309 6.25652 11.8366
      vertex 40.4067 6.27528 11.8691
    endloop
  endfacet
  facet normal 0 0.866025 -0.5
    outer loop
      vertex 45 2 4.4641
      vertex 40.4067 6.27528 11.8691
      vertex 40.5 6.29904 11.9103
    endloop
  endfacet
  facet normal 0 0.866025 -0.5
    outer loop
      vertex 45 2 4.4641
      vertex 40.5 6.29904 11.9103
      vertex 40.5878 6.32754 11.9596
    endloop
  endfacet
  facet normal 0 0.866025 -0.5
    outer loop
      vertex 45 2 4.4641
      vertex 40.5878 6.32754 11.9596
      vertex 40.6691 6.36048 12.0167
    endloop
  endfacet
  facet normal 0 0.866025 -0.5
    outer loop
      vertex 45 2 4.4641
      vertex 40.6691 6.36048 12.0167
      vertex 40.7431 6.39749 12.0808
    endloop
  endfacet
  facet normal 0 0.866025 -0.5
    outer loop
      vertex 45 2 4.4641
      vertex 40.7431 6.39749 12.0808
      vertex 40.809 6.43816 12.1512
    endloop
  endfacet
  facet normal 0 0.866025 -0.5
    outer loop
      vertex 45 2 4.4641
      vertex 40.809 6.43816 12.1512
      vertex 40.866 6.48205 12.2272
    endloop
  endfacet
  facet normal 0 0.866025 -0.5
    outer loop
      vertex 45 2 4.4641
      vertex 40.866 6.48205 12.2272
      vertex 40.9135 6.52868 12.308
    endloop
  endfacet
  facet normal 0 0.866025 -0.5
    outer loop
      vertex 45 2 4.4641
      vertex 40.9135 6.52868 12.308
      vertex 40.9511 6.57754 12.3926
    endloop
  endfacet
  facet normal 0 0.866025 -0.5
    outer loop
      vertex 45 2 4.4641
      vertex 40.9511 6.57754 12.3926
      vertex 40.9781 6.62809 12.4802
    endloop
  endfacet
  facet normal 0 0.866025 -0.5
    outer loop
      vertex 45 2 4.4641
      vertex 40.9781 6.62809 12.4802
      vertex 45 16.1658 29
    endloop
  endfacet
  facet normal 0 0.866025 -0.5
    outer loop
      vertex 40.9781 6.62809 12.4802
      vertex 40.9945 6.67979 12.5697
      vertex 45 16.1658 29
    endloop
  endfacet
  facet normal 0 0.866025 -0.5
    outer loop
      vertex 40.9945 6.78431 12.7508
      vertex 45 16.1658 29
      vertex 41 6.73205 12.6603
    endloop
  endfacet
  facet normal 0 0.866025 -0.5
    outer loop
      vertex 40.9781 6.83601 12.8403
      vertex 45 16.1658 29
      vertex 40.9945 6.78431 12.7508
    endloop
  endfacet
  facet normal 0 0.866025 -0.5
    outer loop
      vertex 40.9511 6.88656 12.9279
      vertex 45 16.1658 29
      vertex 40.9781 6.83601 12.8403
    endloop
  endfacet
  facet normal 0 0.866025 -0.5
    outer loop
      vertex 40.9135 6.93542 13.0125
      vertex 45 16.1658 29
      vertex 40.9511 6.88656 12.9279
    endloop
  endfacet
  facet normal 0 0.866025 -0.5
    outer loop
      vertex 40.866 6.98205 13.0933
      vertex 45 16.1658 29
      vertex 40.9135 6.93542 13.0125
    endloop
  endfacet
  facet normal 0 0.866025 -0.5
    outer loop
      vertex 40.809 7.02594 13.1693
      vertex 45 16.1658 29
      vertex 40.866 6.98205 13.0933
    endloop
  endfacet
  facet normal 0 0.866025 -0.5
    outer loop
      vertex 40.7431 7.06662 13.2397
      vertex 45 16.1658 29
      vertex 40.809 7.02594 13.1693
    endloop
  endfacet
  facet normal 0 0.866025 -0.5
    outer loop
      vertex 40.6691 7.10362 13.3038
      vertex 45 16.1658 29
      vertex 40.7431 7.06662 13.2397
    endloop
  endfacet
  facet normal 0 0.866025 -0.5
    outer loop
      vertex 40.5878 7.13656 13.3609
      vertex 45 16.1658 29
      vertex 40.6691 7.10362 13.3038
    endloop
  endfacet
  facet normal 0 0.866025 -0.5
    outer loop
      vertex 40.5 7.16506 13.4103
      vertex 45 16.1658 29
      vertex 40.5878 7.13656 13.3609
    endloop
  endfacet
  facet normal 0 0.866025 -0.5
    outer loop
      vertex 40.4067 7.18882 13.4514
      vertex 45 16.1658 29
      vertex 40.5 7.16506 13.4103
    endloop
  endfacet
  facet normal 0 0.866025 -0.5
    outer loop
      vertex 40.309 7.20758 13.4839
      vertex 45 16.1658 29
      vertex 40.4067 7.18882 13.4514
    endloop
  endfacet
  facet normal 0 0.866025 -0.5
    outer loop
      vertex 40.2079 7.22112 13.5074
      vertex 45 16.1658 29
      vertex 40.309 7.20758 13.4839
    endloop
  endfacet
  facet normal 0 0.866025 -0.5
    outer loop
      vertex 40.1045 7.22931 13.5215
      vertex 45 16.1658 29
      vertex 40.2079 7.22112 13.5074
    endloop
  endfacet
  facet normal 0 0.866025 -0.5
    outer loop
      vertex 39.134 6.98205 13.0933
      vertex 45 16.1658 29
      vertex 39.191 7.02594 13.1693
    endloop
  endfacet
  facet normal 0 0.866025 -0.5
    outer loop
      vertex 40.1045 7.22931 13.5215
      vertex 40 7.23205 13.5263
      vertex 45 16.1658 29
    endloop
  endfacet
  facet normal 0 0.866025 -0.5
    outer loop
      vertex 40 7.23205 13.5263
      vertex 39.8955 7.22931 13.5215
      vertex 45 16.1658 29
    endloop
  endfacet
  facet normal 0 0.866025 -0.5
    outer loop
      vertex 39.8955 7.22931 13.5215
      vertex 39.7921 7.22112 13.5074
      vertex 45 16.1658 29
    endloop
  endfacet
  facet normal 0 0.866025 -0.5
    outer loop
      vertex 39.7921 7.22112 13.5074
      vertex 39.691 7.20758 13.4839
      vertex 45 16.1658 29
    endloop
  endfacet
  facet normal 0 0.866025 -0.5
    outer loop
      vertex 39.691 7.20758 13.4839
      vertex 39.5933 7.18882 13.4514
      vertex 45 16.1658 29
    endloop
  endfacet
  facet normal 0 0.866025 -0.5
    outer loop
      vertex 39.5933 7.18882 13.4514
      vertex 39.5 7.16506 13.4103
      vertex 45 16.1658 29
    endloop
  endfacet
  facet normal 0 0.866025 -0.5
    outer loop
      vertex 39.5 7.16506 13.4103
      vertex 39.4122 7.13656 13.3609
      vertex 45 16.1658 29
    endloop
  endfacet
  facet normal 0 0.866025 -0.5
    outer loop
      vertex 39.4122 7.13656 13.3609
      vertex 39.3309 7.10362 13.3038
      vertex 45 16.1658 29
    endloop
  endfacet
  facet normal 0 0.866025 -0.5
    outer loop
      vertex 39.3309 7.10362 13.3038
      vertex 39.2569 7.06662 13.2397
      vertex 45 16.1658 29
    endloop
  endfacet
  facet normal 0 0.866025 -0.5
    outer loop
      vertex 39.2569 7.06662 13.2397
      vertex 39.191 7.02594 13.1693
      vertex 45 16.1658 29
    endloop
  endfacet
  facet normal 0 0.866025 -0.5
    outer loop
      vertex 39.0865 6.93542 13.0125
      vertex 30 11.7321 21.3205
      vertex 39.134 6.98205 13.0933
    endloop
  endfacet
  facet normal 0 0.866025 -0.5
    outer loop
      vertex 40.9781 11.6281 21.1405
      vertex 45 16.1658 29
      vertex 40.9511 11.5775 21.0529
    endloop
  endfacet
  facet normal 0 0.866025 -0.5
    outer loop
      vertex 39.0489 6.88656 12.9279
      vertex 30 11.7321 21.3205
      vertex 39.0865 6.93542 13.0125
    endloop
  endfacet
  facet normal 0 0.866025 -0.5
    outer loop
      vertex 39.0219 6.83601 12.8403
      vertex 30 11.7321 21.3205
      vertex 39.0489 6.88656 12.9279
    endloop
  endfacet
  facet normal 0 0.866025 -0.5
    outer loop
      vertex 39.0055 6.78431 12.7508
      vertex 30 11.7321 21.3205
      vertex 39.0219 6.83601 12.8403
    endloop
  endfacet
  facet normal 0 0.866025 -0.5
    outer loop
      vertex 39 6.73205 12.6603
      vertex 30 11.7321 21.3205
      vertex 39.0055 6.78431 12.7508
    endloop
  endfacet
  facet normal 0 0.866025 -0.5
    outer loop
      vertex 39.134 6.98205 13.0933
      vertex 30 11.7321 21.3205
      vertex 39 11.7321 21.3205
    endloop
  endfacet
  facet normal 0 0.866025 -0.5
    outer loop
      vertex 39.134 6.98205 13.0933
      vertex 39 11.7321 21.3205
      vertex 39.0055 11.6798 21.23
    endloop
  endfacet
  facet normal 0 0.866025 -0.5
    outer loop
      vertex 39.134 6.98205 13.0933
      vertex 39.0055 11.6798 21.23
      vertex 39.0219 11.6281 21.1405
    endloop
  endfacet
  facet normal 0 0.866025 -0.5
    outer loop
      vertex 39.134 6.98205 13.0933
      vertex 39.0219 11.6281 21.1405
      vertex 39.0489 11.5775 21.0529
    endloop
  endfacet
  facet normal 0 0.866025 -0.5
    outer loop
      vertex 39.134 6.98205 13.0933
      vertex 39.0489 11.5775 21.0529
      vertex 39.0865 11.5287 20.9683
    endloop
  endfacet
  facet normal 0 0.866025 -0.5
    outer loop
      vertex 39.134 6.98205 13.0933
      vertex 39.0865 11.5287 20.9683
      vertex 39.134 11.4821 20.8875
    endloop
  endfacet
  facet normal 0 0.866025 -0.5
    outer loop
      vertex 39.134 6.98205 13.0933
      vertex 39.134 11.4821 20.8875
      vertex 39.191 11.4382 20.8115
    endloop
  endfacet
  facet normal 0 0.866025 -0.5
    outer loop
      vertex 39.134 6.98205 13.0933
      vertex 39.191 11.4382 20.8115
      vertex 39.2569 11.3975 20.741
    endloop
  endfacet
  facet normal 0 0.866025 -0.5
    outer loop
      vertex 39.134 6.98205 13.0933
      vertex 39.2569 11.3975 20.741
      vertex 39.3309 11.3605 20.6769
    endloop
  endfacet
  facet normal 0 0.866025 -0.5
    outer loop
      vertex 39.134 6.98205 13.0933
      vertex 39.3309 11.3605 20.6769
      vertex 39.4122 11.3275 20.6199
    endloop
  endfacet
  facet normal 0 0.866025 -0.5
    outer loop
      vertex 39.134 6.98205 13.0933
      vertex 39.4122 11.3275 20.6199
      vertex 39.5 11.299 20.5705
    endloop
  endfacet
  facet normal 0 0.866025 -0.5
    outer loop
      vertex 39.134 6.98205 13.0933
      vertex 39.5 11.299 20.5705
      vertex 39.5933 11.2753 20.5294
    endloop
  endfacet
  facet normal 0 0.866025 -0.5
    outer loop
      vertex 39.134 6.98205 13.0933
      vertex 39.5933 11.2753 20.5294
      vertex 39.691 11.2565 20.4969
    endloop
  endfacet
  facet normal 0 0.866025 -0.5
    outer loop
      vertex 39.134 6.98205 13.0933
      vertex 39.691 11.2565 20.4969
      vertex 39.7921 11.243 20.4734
    endloop
  endfacet
  facet normal 0 0.866025 -0.5
    outer loop
      vertex 39.134 6.98205 13.0933
      vertex 39.7921 11.243 20.4734
      vertex 39.8955 11.2348 20.4592
    endloop
  endfacet
  facet normal 0 0.866025 -0.5
    outer loop
      vertex 39.134 6.98205 13.0933
      vertex 39.8955 11.2348 20.4592
      vertex 40 11.2321 20.4545
    endloop
  endfacet
  facet normal 0 0.866025 -0.5
    outer loop
      vertex 39.134 6.98205 13.0933
      vertex 40 11.2321 20.4545
      vertex 40.1045 11.2348 20.4592
    endloop
  endfacet
  facet normal 0 0.866025 -0.5
    outer loop
      vertex 39.134 6.98205 13.0933
      vertex 40.1045 11.2348 20.4592
      vertex 40.2079 11.243 20.4734
    endloop
  endfacet
  facet normal 0 0.866025 -0.5
    outer loop
      vertex 39.134 6.98205 13.0933
      vertex 40.2079 11.243 20.4734
      vertex 40.309 11.2565 20.4969
    endloop
  endfacet
  facet normal 0 0.866025 -0.5
    outer loop
      vertex 39.134 6.98205 13.0933
      vertex 40.309 11.2565 20.4969
      vertex 40.4067 11.2753 20.5294
    endloop
  endfacet
  facet normal 0 0.866025 -0.5
    outer loop
      vertex 39.134 6.98205 13.0933
      vertex 40.4067 11.2753 20.5294
      vertex 40.5 11.299 20.5705
    endloop
  endfacet
  facet normal 0 0.866025 -0.5
    outer loop
      vertex 39.134 6.98205 13.0933
      vertex 40.5 11.299 20.5705
      vertex 40.5878 11.3275 20.6199
    endloop
  endfacet
  facet normal 0 0.866025 -0.5
    outer loop
      vertex 39.134 6.98205 13.0933
      vertex 40.5878 11.3275 20.6199
      vertex 40.6691 11.3605 20.6769
    endloop
  endfacet
  facet normal 0 0.866025 -0.5
    outer loop
      vertex 39.134 6.98205 13.0933
      vertex 40.6691 11.3605 20.6769
      vertex 40.7431 11.3975 20.741
    endloop
  endfacet
  facet normal 0 0.866025 -0.5
    outer loop
      vertex 39.134 6.98205 13.0933
      vertex 40.7431 11.3975 20.741
      vertex 40.809 11.4382 20.8115
    endloop
  endfacet
  facet normal 0 0.866025 -0.5
    outer loop
      vertex 39.134 6.98205 13.0933
      vertex 40.809 11.4382 20.8115
      vertex 40.866 11.4821 20.8875
    endloop
  endfacet
  facet normal 0 0.866025 -0.5
    outer loop
      vertex 39.134 6.98205 13.0933
      vertex 40.866 11.4821 20.8875
      vertex 40.9135 11.5287 20.9683
    endloop
  endfacet
  facet normal 0 0.866025 -0.5
    outer loop
      vertex 39.134 6.98205 13.0933
      vertex 40.9135 11.5287 20.9683
      vertex 45 16.1658 29
    endloop
  endfacet
  facet normal 0 0.866025 -0.5
    outer loop
      vertex 40.9135 11.5287 20.9683
      vertex 40.9511 11.5775 21.0529
      vertex 45 16.1658 29
    endloop
  endfacet
  facet normal 0 0.866025 -0.5
    outer loop
      vertex 40.9945 11.6798 21.23
      vertex 45 16.1658 29
      vertex 40.9781 11.6281 21.1405
    endloop
  endfacet
  facet normal 0 0.866025 -0.5
    outer loop
      vertex 41 11.7321 21.3205
      vertex 45 16.1658 29
      vertex 40.9945 11.6798 21.23
    endloop
  endfacet
  facet normal 0 0.866025 -0.5
    outer loop
      vertex 40.9945 11.7843 21.411
      vertex 45 16.1658 29
      vertex 41 11.7321 21.3205
    endloop
  endfacet
  facet normal 0 0.866025 -0.5
    outer loop
      vertex 40.9781 11.836 21.5006
      vertex 45 16.1658 29
      vertex 40.9945 11.7843 21.411
    endloop
  endfacet
  facet normal 0 0.866025 -0.5
    outer loop
      vertex 40.9511 11.8866 21.5881
      vertex 45 16.1658 29
      vertex 40.9781 11.836 21.5006
    endloop
  endfacet
  facet normal 0 0.866025 -0.5
    outer loop
      vertex 40.9135 11.9354 21.6728
      vertex 45 16.1658 29
      vertex 40.9511 11.8866 21.5881
    endloop
  endfacet
  facet normal 0 0.866025 -0.5
    outer loop
      vertex 40.866 11.9821 21.7535
      vertex 45 16.1658 29
      vertex 40.9135 11.9354 21.6728
    endloop
  endfacet
  facet normal 0 0.866025 -0.5
    outer loop
      vertex 40.809 12.0259 21.8295
      vertex 45 16.1658 29
      vertex 40.866 11.9821 21.7535
    endloop
  endfacet
  facet normal 0 0.866025 -0.5
    outer loop
      vertex 40.7431 12.0666 21.9
      vertex 45 16.1658 29
      vertex 40.809 12.0259 21.8295
    endloop
  endfacet
  facet normal 0 0.866025 -0.5
    outer loop
      vertex 40.6691 12.1036 21.9641
      vertex 45 16.1658 29
      vertex 40.7431 12.0666 21.9
    endloop
  endfacet
  facet normal 0 0.866025 -0.5
    outer loop
      vertex 40.5878 12.1366 22.0211
      vertex 45 16.1658 29
      vertex 40.6691 12.1036 21.9641
    endloop
  endfacet
  facet normal 0 0.866025 -0.5
    outer loop
      vertex 40.5 12.1651 22.0705
      vertex 45 16.1658 29
      vertex 40.5878 12.1366 22.0211
    endloop
  endfacet
  facet normal 0 0.866025 -0.5
    outer loop
      vertex 40.4067 12.1888 22.1117
      vertex 45 16.1658 29
      vertex 40.5 12.1651 22.0705
    endloop
  endfacet
  facet normal 0 0.866025 -0.5
    outer loop
      vertex 40.309 12.2076 22.1441
      vertex 45 16.1658 29
      vertex 40.4067 12.1888 22.1117
    endloop
  endfacet
  facet normal 0 0.866025 -0.5
    outer loop
      vertex 40.2079 12.2211 22.1676
      vertex 45 16.1658 29
      vertex 40.309 12.2076 22.1441
    endloop
  endfacet
  facet normal 0 0.866025 -0.5
    outer loop
      vertex 40.1045 12.2293 22.1818
      vertex 45 16.1658 29
      vertex 40.2079 12.2211 22.1676
    endloop
  endfacet
  facet normal 0 0.866025 -0.5
    outer loop
      vertex 40 12.2321 22.1865
      vertex 45 16.1658 29
      vertex 40.1045 12.2293 22.1818
    endloop
  endfacet
  facet normal 0 0.866025 -0.5
    outer loop
      vertex 39.8955 12.2293 22.1818
      vertex 45 16.1658 29
      vertex 40 12.2321 22.1865
    endloop
  endfacet
  facet normal 0 0.866025 -0.5
    outer loop
      vertex 39.7921 12.2211 22.1676
      vertex 45 16.1658 29
      vertex 39.8955 12.2293 22.1818
    endloop
  endfacet
  facet normal 0 0.866025 -0.5
    outer loop
      vertex 39.691 12.2076 22.1441
      vertex 45 16.1658 29
      vertex 39.7921 12.2211 22.1676
    endloop
  endfacet
  facet normal 0 0.866025 -0.5
    outer loop
      vertex 39.5933 12.1888 22.1117
      vertex 45 16.1658 29
      vertex 39.691 12.2076 22.1441
    endloop
  endfacet
  facet normal 0 0.866025 -0.5
    outer loop
      vertex 39.5 12.1651 22.0705
      vertex 30 11.7321 21.3205
      vertex 39.5933 12.1888 22.1117
    endloop
  endfacet
  facet normal 0 0.866025 -0.5
    outer loop
      vertex 39.4122 12.1366 22.0211
      vertex 30 11.7321 21.3205
      vertex 39.5 12.1651 22.0705
    endloop
  endfacet
  facet normal 0 0.866025 -0.5
    outer loop
      vertex 39.3309 12.1036 21.9641
      vertex 30 11.7321 21.3205
      vertex 39.4122 12.1366 22.0211
    endloop
  endfacet
  facet normal 0 0.866025 -0.5
    outer loop
      vertex 39.2569 12.0666 21.9
      vertex 30 11.7321 21.3205
      vertex 39.3309 12.1036 21.9641
    endloop
  endfacet
  facet normal 0 0.866025 -0.5
    outer loop
      vertex 39.191 12.0259 21.8295
      vertex 30 11.7321 21.3205
      vertex 39.2569 12.0666 21.9
    endloop
  endfacet
  facet normal 0 0.866025 -0.5
    outer loop
      vertex 39.134 11.9821 21.7535
      vertex 30 11.7321 21.3205
      vertex 39.191 12.0259 21.8295
    endloop
  endfacet
  facet normal 0 0.866025 -0.5
    outer loop
      vertex 39.0865 11.9354 21.6728
      vertex 30 11.7321 21.3205
      vertex 39.134 11.9821 21.7535
    endloop
  endfacet
  facet normal 0 0.866025 -0.5
    outer loop
      vertex 39.0489 11.8866 21.5881
      vertex 30 11.7321 21.3205
      vertex 39.0865 11.9354 21.6728
    endloop
  endfacet
  facet normal 0 0.866025 -0.5
    outer loop
      vertex 39.0219 11.836 21.5006
      vertex 30 11.7321 21.3205
      vertex 39.0489 11.8866 21.5881
    endloop
  endfacet
  facet normal 0 0.866025 -0.5
    outer loop
      vertex 39.0055 11.7843 21.411
      vertex 30 11.7321 21.3205
      vertex 39.0219 11.836 21.5006
    endloop
  endfacet
  facet normal 0 0.866025 -0.5
    outer loop
      vertex 39 11.7321 21.3205
      vertex 30 11.7321 21.3205
      vertex 39.0055 11.7843 21.411
    endloop
  endfacet
  facet normal 0 0.866025 -0.5
    outer loop
      vertex 10 11.7321 21.3205
      vertex 5 16.1658 29
      vertex 30 11.7321 21.3205
    endloop
  endfacet
  facet normal 0 0.866025 -0.5
    outer loop
      vertex 30 11.7321 21.3205
      vertex 45 2 4.4641
      vertex 30 6.73205 12.6603
    endloop
  endfacet
endsolid OpenSCAD_Model
